<?xml version="1.0" encoding="UTF-8"?>
<svg xmlns="http://www.w3.org/2000/svg" width="900" height="900" viewBox="0 0 900 900" fill="none" role="img" aria-label="business-luxe-9">
  <g stroke="currentColor" stroke-width="0" stroke-linecap="round" stroke-linejoin="round" opacity="0.7">
<rect x="150" y="380" width="4" height="140" fill="currentColor" opacity="0.30"/>
    <rect x="180" y="380" width="2" height="140" fill="currentColor" opacity="0.50"/>
    <rect x="210" y="380" width="2" height="140" fill="currentColor" opacity="0.70"/>
    <rect x="240" y="380" width="6" height="140" fill="currentColor" opacity="0.30"/>
    <rect x="270" y="380" width="4" height="140" fill="currentColor" opacity="0.50"/>
    <rect x="300" y="380" width="2" height="140" fill="currentColor" opacity="0.70"/>
    <rect x="330" y="380" width="6" height="140" fill="currentColor" opacity="0.30"/>
    <rect x="360" y="380" width="2" height="140" fill="currentColor" opacity="0.50"/>
    <rect x="390" y="380" width="4" height="140" fill="currentColor" opacity="0.70"/>
    <rect x="420" y="380" width="6" height="140" fill="currentColor" opacity="0.30"/>
    <rect x="450" y="380" width="2" height="140" fill="currentColor" opacity="0.50"/>
    <rect x="480" y="380" width="2" height="140" fill="currentColor" opacity="0.70"/>
    <rect x="510" y="380" width="4" height="140" fill="currentColor" opacity="0.30"/>
    <rect x="540" y="380" width="2" height="140" fill="currentColor" opacity="0.50"/>
    <rect x="570" y="380" width="2" height="140" fill="currentColor" opacity="0.70"/>
    <rect x="600" y="380" width="6" height="140" fill="currentColor" opacity="0.30"/>
    <rect x="630" y="380" width="4" height="140" fill="currentColor" opacity="0.50"/>
    <rect x="660" y="380" width="2" height="140" fill="currentColor" opacity="0.70"/>
    <rect x="690" y="380" width="6" height="140" fill="currentColor" opacity="0.30"/>
    <rect x="720" y="380" width="2" height="140" fill="currentColor" opacity="0.50"/>
  </g>
</svg>
