<?xml version="1.0" encoding="UTF-8"?>
<svg xmlns="http://www.w3.org/2000/svg" width="900" height="900" viewBox="0 0 900 900" fill="none" role="img" aria-label="business-luxe-4">
  <g stroke="currentColor" stroke-width="2" stroke-linecap="round" stroke-linejoin="round" opacity="0.4">
<line x1="-100" y1="0" x2="800" y2="900"/>
    <line x1="-50" y1="0" x2="850" y2="900"/>
    <line x1="0" y1="0" x2="900" y2="900"/>
    <line x1="50" y1="0" x2="950" y2="900"/>
    <line x1="100" y1="0" x2="1000" y2="900"/>
    <line x1="150" y1="0" x2="1050" y2="900"/>
    <line x1="200" y1="0" x2="1100" y2="900"/>
    <line x1="250" y1="0" x2="1150" y2="900"/>
    <line x1="300" y1="0" x2="1200" y2="900"/>
    <line x1="350" y1="0" x2="1250" y2="900"/>
    <line x1="400" y1="0" x2="1300" y2="900"/>
    <line x1="450" y1="0" x2="1350" y2="900"/>
    <line x1="500" y1="0" x2="1400" y2="900"/>
    <line x1="550" y1="0" x2="1450" y2="900"/>
    <line x1="600" y1="0" x2="1500" y2="900"/>
    <line x1="650" y1="0" x2="1550" y2="900"/>
    <line x1="700" y1="0" x2="1600" y2="900"/>
    <line x1="750" y1="0" x2="1650" y2="900"/>
    <line x1="800" y1="0" x2="1700" y2="900"/>
    <line x1="850" y1="0" x2="1750" y2="900"/>
    <line x1="900" y1="0" x2="1800" y2="900"/>
    <line x1="950" y1="0" x2="1850" y2="900"/>
    <line x1="1000" y1="0" x2="1900" y2="900"/>
    <line x1="1050" y1="0" x2="1950" y2="900"/>
    <line x1="1100" y1="0" x2="2000" y2="900"/>
    <line x1="1150" y1="0" x2="2050" y2="900"/>
    <line x1="1200" y1="0" x2="2100" y2="900"/>
    <line x1="1250" y1="0" x2="2150" y2="900"/>
    <line x1="1300" y1="0" x2="2200" y2="900"/>
    <line x1="1350" y1="0" x2="2250" y2="900"/>
  </g>
</svg>
