<?xml version="1.0" encoding="UTF-8"?>
<svg xmlns="http://www.w3.org/2000/svg" width="900" height="900" viewBox="0 0 900 900" fill="none" role="img" aria-label="business-luxe-5">
  <g stroke="currentColor" stroke-width="2" stroke-linecap="round" stroke-linejoin="round" opacity="0.6">
<line x1="450" y1="900" x2="450" y2="100"/>
    <line x1="450" y1="900" x2="-45.0" y2="405.0" opacity="0.20"/>
    <line x1="450" y1="900" x2="-2.4" y2="365.8" opacity="0.35"/>
    <line x1="450" y1="900" x2="43.2" y2="330.3" opacity="0.50"/>
    <line x1="450" y1="900" x2="91.7" y2="298.7" opacity="0.20"/>
    <line x1="450" y1="900" x2="142.6" y2="271.1" opacity="0.35"/>
    <line x1="450" y1="900" x2="195.5" y2="247.9" opacity="0.50"/>
    <line x1="450" y1="900" x2="250.3" y2="229.1" opacity="0.20"/>
    <line x1="450" y1="900" x2="306.3" y2="214.9" opacity="0.35"/>
    <line x1="450" y1="900" x2="363.4" y2="205.4" opacity="0.50"/>
    <line x1="450" y1="900" x2="421.1" y2="200.6" opacity="0.20"/>
    <line x1="450" y1="900" x2="478.9" y2="200.6" opacity="0.35"/>
    <line x1="450" y1="900" x2="536.6" y2="205.4" opacity="0.50"/>
    <line x1="450" y1="900" x2="593.7" y2="214.9" opacity="0.20"/>
    <line x1="450" y1="900" x2="649.7" y2="229.1" opacity="0.35"/>
    <line x1="450" y1="900" x2="704.5" y2="247.9" opacity="0.50"/>
    <line x1="450" y1="900" x2="757.4" y2="271.1" opacity="0.20"/>
    <line x1="450" y1="900" x2="808.3" y2="298.7" opacity="0.35"/>
    <line x1="450" y1="900" x2="856.8" y2="330.3" opacity="0.50"/>
    <line x1="450" y1="900" x2="902.4" y2="365.8" opacity="0.20"/>
    <line x1="450" y1="900" x2="945.0" y2="405.0" opacity="0.35"/>
  </g>
</svg>
