<?xml version="1.0" encoding="UTF-8"?>
<svg xmlns="http://www.w3.org/2000/svg" width="900" height="900" viewBox="0 0 900 900" fill="none" role="img" aria-label="circumcision-classic-7">
  <g stroke="currentColor" stroke-width="4" stroke-linecap="round" stroke-linejoin="round" opacity="0.9">
<circle cx="770.0" cy="450.0" r="14" stroke="currentColor" stroke-width="3" fill="none" opacity="0.7"/>
    <circle cx="745.6" cy="572.5" r="14" stroke="currentColor" stroke-width="3" fill="none" opacity="0.7"/>
    <circle cx="676.3" cy="676.3" r="14" stroke="currentColor" stroke-width="3" fill="none" opacity="0.7"/>
    <circle cx="572.5" cy="745.6" r="14" stroke="currentColor" stroke-width="3" fill="none" opacity="0.7"/>
    <circle cx="450.0" cy="770.0" r="14" stroke="currentColor" stroke-width="3" fill="none" opacity="0.7"/>
    <circle cx="327.5" cy="745.6" r="14" stroke="currentColor" stroke-width="3" fill="none" opacity="0.7"/>
    <circle cx="223.7" cy="676.3" r="14" stroke="currentColor" stroke-width="3" fill="none" opacity="0.7"/>
    <circle cx="154.4" cy="572.5" r="14" stroke="currentColor" stroke-width="3" fill="none" opacity="0.7"/>
    <circle cx="130.0" cy="450.0" r="14" stroke="currentColor" stroke-width="3" fill="none" opacity="0.7"/>
    <circle cx="154.4" cy="327.5" r="14" stroke="currentColor" stroke-width="3" fill="none" opacity="0.7"/>
    <circle cx="223.7" cy="223.7" r="14" stroke="currentColor" stroke-width="3" fill="none" opacity="0.7"/>
    <circle cx="327.5" cy="154.4" r="14" stroke="currentColor" stroke-width="3" fill="none" opacity="0.7"/>
    <circle cx="450.0" cy="130.0" r="14" stroke="currentColor" stroke-width="3" fill="none" opacity="0.7"/>
    <circle cx="572.5" cy="154.4" r="14" stroke="currentColor" stroke-width="3" fill="none" opacity="0.7"/>
    <circle cx="676.3" cy="223.7" r="14" stroke="currentColor" stroke-width="3" fill="none" opacity="0.7"/>
    <circle cx="745.6" cy="327.5" r="14" stroke="currentColor" stroke-width="3" fill="none" opacity="0.7"/>
    <path d="M520 320 A130 130 0 1 0 520 580 A110 110 0 0 1 520 320 Z" fill="currentColor" opacity="0.5"/>
    <polygon points="620.0,414.0 628.5,438.4 654.2,438.9 633.7,454.4 641.2,479.1 620.0,464.4 598.8,479.1 606.3,454.4 585.8,438.9 611.5,438.4" fill="currentColor" opacity="0.5"/>
  </g>
</svg>
