<?xml version="1.0" encoding="UTF-8"?>
<svg xmlns="http://www.w3.org/2000/svg" width="900" height="900" viewBox="0 0 900 900" fill="none" role="img" aria-label="baby-shower-12">
  <g stroke="currentColor" stroke-width="5" stroke-linecap="round" stroke-linejoin="round" opacity="0.9">
<line x1="200" y1="280" x2="700" y2="280"/>
    <line x1="280" y1="280" x2="280" y2="380"/>
    <line x1="450" y1="280" x2="450" y2="450"/>
    <line x1="620" y1="280" x2="620" y2="400"/>
    <polygon points="280.0,388.0 287.5,409.6 310.4,410.1 292.2,424.0 298.8,445.9 280.0,432.8 261.2,445.9 267.8,424.0 249.6,410.1 272.5,409.6" fill="currentColor" opacity="0.5"/>
    <polygon points="450.0,464.0 458.5,488.4 484.2,488.9 463.7,504.4 471.2,529.1 450.0,514.4 428.8,529.1 436.3,504.4 415.8,488.9 441.5,488.4" fill="currentColor" opacity="0.5"/>
    <polygon points="620.0,412.0 626.6,430.9 646.6,431.3 630.7,443.5 636.5,462.7 620.0,451.2 603.5,462.7 609.3,443.5 593.4,431.3 613.4,430.9" fill="currentColor" opacity="0.5"/>
    <circle cx="450" cy="180" r="20" fill="currentColor" opacity="0.6"/>
    <line x1="450" y1="180" x2="450" y2="280" opacity="0.6"/>
  </g>
</svg>
