<?xml version="1.0" encoding="UTF-8"?>
<svg xmlns="http://www.w3.org/2000/svg" width="900" height="900" viewBox="0 0 900 900" fill="none" role="img" aria-label="wedding-essentials-3">
  <g stroke="currentColor" stroke-width="5" stroke-linecap="round" stroke-linejoin="round" opacity="0.9">
<rect x="240" y="540" width="420" height="160" rx="14" fill="currentColor" opacity="0.35"/>
    <rect x="280" y="420" width="340" height="120" rx="12" fill="currentColor" opacity="0.45"/>
    <rect x="320" y="320" width="260" height="100" rx="10" fill="currentColor" opacity="0.55"/>
    <path d="M280 480 Q330 460 380 480 Q430 460 480 480 Q530 460 580 480 Q620 460 620 480" stroke-width="3" opacity="0.7"/>
    <path d="M240 600 Q290 580 340 600 Q390 580 440 600 Q490 580 540 600 Q590 580 660 600" stroke-width="3" opacity="0.7"/>
    <path d="M450 320 L450 240"/>
    <path d="M430 240 L470 240 M440 220 L460 220" opacity="0.7"/>
    <circle cx="450" cy="200" r="14" fill="currentColor" opacity="0.6"/>
  </g>
</svg>
