<?xml version="1.0" encoding="UTF-8"?>
<svg xmlns="http://www.w3.org/2000/svg" width="900" height="900" viewBox="0 0 900 900" fill="none" role="img" aria-label="wedding-essentials-5">
  <g stroke="currentColor" stroke-width="6" stroke-linecap="round" stroke-linejoin="round" opacity="0.9">
<path d="M180 800 L180 380 Q180 180 450 180 Q720 180 720 380 L720 800"/>
    <g>
        <circle cx="183.32414803931277" cy="348.71310699195385" r="28" fill="currentColor" opacity="0.18"/>
      <circle cx="183.32414803931277" cy="348.71310699195385" r="18.2" fill="currentColor" opacity="0.30"/>
      <circle cx="183.32414803931277" cy="348.71310699195385" r="12.6" fill="currentColor" opacity="0.55"/>
      <path d="M178.91414803931278 346.19310699195387 Q183.32414803931277 339.89310699195386 187.73414803931277 346.19310699195387"/>
      <path d="M183.32414803931277 348.71310699195385 Q187.10414803931278 349.97310699195384 184.58414803931277 353.75310699195387"/>
        <ellipse cx="153.32414803931277" cy="358.71310699195385" rx="22" ry="8.8" transform="rotate(-45 153.32414803931277 358.71310699195385)" fill="currentColor" opacity="0.32"/>
        <ellipse cx="213.32414803931277" cy="358.71310699195385" rx="22" ry="8.8" transform="rotate(45 213.32414803931277 358.71310699195385)" fill="currentColor" opacity="0.32"/>
      </g>
    <g>
        <circle cx="221.38446620836325" cy="273.5935846969327" r="28" fill="currentColor" opacity="0.18"/>
      <circle cx="221.38446620836325" cy="273.5935846969327" r="18.2" fill="currentColor" opacity="0.30"/>
      <circle cx="221.38446620836325" cy="273.5935846969327" r="12.6" fill="currentColor" opacity="0.55"/>
      <path d="M216.97446620836325 271.0735846969327 Q221.38446620836325 264.7735846969327 225.79446620836325 271.0735846969327"/>
      <path d="M221.38446620836325 273.5935846969327 Q225.16446620836325 274.85358469693267 222.64446620836324 278.6335846969327"/>
        <ellipse cx="191.38446620836325" cy="283.5935846969327" rx="22" ry="8.8" transform="rotate(-45 191.38446620836325 283.5935846969327)" fill="currentColor" opacity="0.32"/>
        <ellipse cx="251.38446620836325" cy="283.5935846969327" rx="22" ry="8.8" transform="rotate(45 251.38446620836325 283.5935846969327)" fill="currentColor" opacity="0.32"/>
      </g>
    <g>
        <circle cx="296.2391868445179" cy="215.59958491041803" r="28" fill="currentColor" opacity="0.18"/>
      <circle cx="296.2391868445179" cy="215.59958491041803" r="18.2" fill="currentColor" opacity="0.30"/>
      <circle cx="296.2391868445179" cy="215.59958491041803" r="12.6" fill="currentColor" opacity="0.55"/>
      <path d="M291.8291868445179 213.07958491041802 Q296.2391868445179 206.77958491041804 300.64918684451794 213.07958491041802"/>
      <path d="M296.2391868445179 215.59958491041803 Q300.0191868445179 216.85958491041802 297.4991868445179 220.63958491041802"/>
        <ellipse cx="266.2391868445179" cy="225.59958491041803" rx="22" ry="8.8" transform="rotate(-45 266.2391868445179 225.59958491041803)" fill="currentColor" opacity="0.32"/>
        <ellipse cx="326.2391868445179" cy="225.59958491041803" rx="22" ry="8.8" transform="rotate(45 326.2391868445179 225.59958491041803)" fill="currentColor" opacity="0.32"/>
      </g>
    <g>
        <circle cx="395.84085773851626" cy="184.0649203153529" r="28" fill="currentColor" opacity="0.18"/>
      <circle cx="395.84085773851626" cy="184.0649203153529" r="18.2" fill="currentColor" opacity="0.30"/>
      <circle cx="395.84085773851626" cy="184.0649203153529" r="12.6" fill="currentColor" opacity="0.55"/>
      <path d="M391.43085773851624 181.5449203153529 Q395.84085773851626 175.2449203153529 400.2508577385163 181.5449203153529"/>
      <path d="M395.84085773851626 184.0649203153529 Q399.62085773851624 185.3249203153529 397.10085773851625 189.1049203153529"/>
        <ellipse cx="365.84085773851626" cy="194.0649203153529" rx="22" ry="8.8" transform="rotate(-45 365.84085773851626 194.0649203153529)" fill="currentColor" opacity="0.32"/>
        <ellipse cx="425.84085773851626" cy="194.0649203153529" rx="22" ry="8.8" transform="rotate(45 425.84085773851626 194.0649203153529)" fill="currentColor" opacity="0.32"/>
      </g>
    <g>
        <circle cx="504.1591422614836" cy="184.06492031535288" r="28" fill="currentColor" opacity="0.18"/>
      <circle cx="504.1591422614836" cy="184.06492031535288" r="18.2" fill="currentColor" opacity="0.30"/>
      <circle cx="504.1591422614836" cy="184.06492031535288" r="12.6" fill="currentColor" opacity="0.55"/>
      <path d="M499.7491422614836 181.54492031535287 Q504.1591422614836 175.24492031535289 508.56914226148365 181.54492031535287"/>
      <path d="M504.1591422614836 184.06492031535288 Q507.9391422614836 185.32492031535287 505.4191422614836 189.10492031535287"/>
        <ellipse cx="474.1591422614836" cy="194.06492031535288" rx="22" ry="8.8" transform="rotate(-45 474.1591422614836 194.06492031535288)" fill="currentColor" opacity="0.32"/>
        <ellipse cx="534.1591422614836" cy="194.06492031535288" rx="22" ry="8.8" transform="rotate(45 534.1591422614836 194.06492031535288)" fill="currentColor" opacity="0.32"/>
      </g>
    <g>
        <circle cx="603.7608131554821" cy="215.59958491041806" r="28" fill="currentColor" opacity="0.18"/>
      <circle cx="603.7608131554821" cy="215.59958491041806" r="18.2" fill="currentColor" opacity="0.30"/>
      <circle cx="603.7608131554821" cy="215.59958491041806" r="12.6" fill="currentColor" opacity="0.55"/>
      <path d="M599.3508131554821 213.07958491041805 Q603.7608131554821 206.77958491041807 608.170813155482 213.07958491041805"/>
      <path d="M603.7608131554821 215.59958491041806 Q607.540813155482 216.85958491041805 605.0208131554821 220.63958491041805"/>
        <ellipse cx="573.7608131554821" cy="225.59958491041806" rx="22" ry="8.8" transform="rotate(-45 573.7608131554821 225.59958491041806)" fill="currentColor" opacity="0.32"/>
        <ellipse cx="633.7608131554821" cy="225.59958491041806" rx="22" ry="8.8" transform="rotate(45 633.7608131554821 225.59958491041806)" fill="currentColor" opacity="0.32"/>
      </g>
    <g>
        <circle cx="678.6155337916367" cy="273.5935846969327" r="28" fill="currentColor" opacity="0.18"/>
      <circle cx="678.6155337916367" cy="273.5935846969327" r="18.2" fill="currentColor" opacity="0.30"/>
      <circle cx="678.6155337916367" cy="273.5935846969327" r="12.6" fill="currentColor" opacity="0.55"/>
      <path d="M674.2055337916368 271.0735846969327 Q678.6155337916367 264.7735846969327 683.0255337916367 271.0735846969327"/>
      <path d="M678.6155337916367 273.5935846969327 Q682.3955337916367 274.85358469693267 679.8755337916367 278.6335846969327"/>
        <ellipse cx="648.6155337916367" cy="283.5935846969327" rx="22" ry="8.8" transform="rotate(-45 648.6155337916367 283.5935846969327)" fill="currentColor" opacity="0.32"/>
        <ellipse cx="708.6155337916367" cy="283.5935846969327" rx="22" ry="8.8" transform="rotate(45 708.6155337916367 283.5935846969327)" fill="currentColor" opacity="0.32"/>
      </g>
    <g>
        <circle cx="716.6758519606872" cy="348.7131069919538" r="28" fill="currentColor" opacity="0.18"/>
      <circle cx="716.6758519606872" cy="348.7131069919538" r="18.2" fill="currentColor" opacity="0.30"/>
      <circle cx="716.6758519606872" cy="348.7131069919538" r="12.6" fill="currentColor" opacity="0.55"/>
      <path d="M712.2658519606872 346.1931069919538 Q716.6758519606872 339.8931069919538 721.0858519606871 346.1931069919538"/>
      <path d="M716.6758519606872 348.7131069919538 Q720.4558519606871 349.9731069919538 717.9358519606872 353.7531069919538"/>
        <ellipse cx="686.6758519606872" cy="358.7131069919538" rx="22" ry="8.8" transform="rotate(-45 686.6758519606872 358.7131069919538)" fill="currentColor" opacity="0.32"/>
        <ellipse cx="746.6758519606872" cy="358.7131069919538" rx="22" ry="8.8" transform="rotate(45 746.6758519606872 358.7131069919538)" fill="currentColor" opacity="0.32"/>
      </g>
  </g>
</svg>
