<?xml version="1.0" encoding="UTF-8"?>
<svg xmlns="http://www.w3.org/2000/svg" width="900" height="900" viewBox="0 0 900 900" fill="none" role="img" aria-label="wedding-essentials-6">
  <g stroke="currentColor" stroke-width="5" stroke-linecap="round" stroke-linejoin="round" opacity="0.9">
<path d="M340 240 L340 380 Q340 460 380 460 L380 700"/>
    <path d="M420 240 L420 380 Q420 460 380 460"/>
    <line x1="320" y1="700" x2="440" y2="700"/>
    <path d="M340 320 Q380 340 420 320 L420 380 L340 380 Z" fill="currentColor" opacity="0.4"/>
    <path d="M560 240 L560 380 Q560 460 520 460 L520 700"/>
    <path d="M480 240 L480 380 Q480 460 520 460"/>
    <line x1="460" y1="700" x2="580" y2="700"/>
    <path d="M480 320 Q520 340 560 320 L560 380 L480 380 Z" fill="currentColor" opacity="0.4"/>
    <polygon points="450.0,260.0 455.7,274.3 470.0,280.0 455.7,285.7 450.0,300.0 444.3,285.7 430.0,280.0 444.3,274.3" fill="currentColor" opacity="0.5"/>
    <polygon points="420.0,206.0 424.0,216.0 434.0,220.0 424.0,224.0 420.0,234.0 416.0,224.0 406.0,220.0 416.0,216.0" fill="currentColor" opacity="0.5"/>
    <polygon points="480.0,216.0 484.0,226.0 494.0,230.0 484.0,234.0 480.0,244.0 476.0,234.0 466.0,230.0 476.0,226.0" fill="currentColor" opacity="0.5"/>
  </g>
</svg>
