<?xml version="1.0" encoding="UTF-8"?>
<svg xmlns="http://www.w3.org/2000/svg" width="900" height="900" viewBox="0 0 900 900" fill="none" role="img" aria-label="wedding-essentials-12">
  <g stroke="currentColor" stroke-width="5" stroke-linecap="round" stroke-linejoin="round" opacity="0.9">
<circle cx="450" cy="450" r="240" fill="none" stroke="currentColor" stroke-width="3" opacity="0.5"/>
    <circle cx="690" cy="450" r="30" fill="currentColor" opacity="0.18"/>
      <circle cx="690" cy="450" r="19.5" fill="currentColor" opacity="0.30"/>
      <circle cx="690" cy="450" r="13.5" fill="currentColor" opacity="0.55"/>
      <path d="M685.275 447.3 Q690 440.55 694.725 447.3"/>
      <path d="M690 450 Q694.05 451.35 691.35 455.4"/>
    <ellipse cx="674.6" cy="570.0" rx="9.8" ry="5.0" transform="rotate(0.0 674.6 570.0)" fill="currentColor" opacity="0.35"/>
      <ellipse cx="666.2" cy="584.5" rx="9.8" ry="5.0" transform="rotate(60.0 666.2 584.5)" fill="currentColor" opacity="0.35"/>
      <ellipse cx="649.4" cy="584.5" rx="9.8" ry="5.0" transform="rotate(120.0 649.4 584.5)" fill="currentColor" opacity="0.35"/>
      <ellipse cx="641.0" cy="570.0" rx="9.8" ry="5.0" transform="rotate(180.0 641.0 570.0)" fill="currentColor" opacity="0.35"/>
      <ellipse cx="649.4" cy="555.5" rx="9.8" ry="5.0" transform="rotate(240.0 649.4 555.5)" fill="currentColor" opacity="0.35"/>
      <ellipse cx="666.2" cy="555.5" rx="9.8" ry="5.0" transform="rotate(300.0 666.2 555.5)" fill="currentColor" opacity="0.35"/>
      <circle cx="657.8460969082653" cy="570" r="8.96" fill="currentColor" opacity="0.7"/>
    <ellipse cx="570" cy="657.8460969082653" rx="24" ry="9.600000000000001" transform="rotate(150 570 657.8460969082653)" fill="currentColor" opacity="0.32"/>
    <circle cx="450" cy="690" r="30" fill="currentColor" opacity="0.18"/>
      <circle cx="450" cy="690" r="19.5" fill="currentColor" opacity="0.30"/>
      <circle cx="450" cy="690" r="13.5" fill="currentColor" opacity="0.55"/>
      <path d="M445.275 687.3 Q450 680.55 454.725 687.3"/>
      <path d="M450 690 Q454.05 691.35 451.35 695.4"/>
    <ellipse cx="346.8" cy="657.8" rx="9.8" ry="5.0" transform="rotate(0.0 346.8 657.8)" fill="currentColor" opacity="0.35"/>
      <ellipse cx="338.4" cy="672.4" rx="9.8" ry="5.0" transform="rotate(60.0 338.4 672.4)" fill="currentColor" opacity="0.35"/>
      <ellipse cx="321.6" cy="672.4" rx="9.8" ry="5.0" transform="rotate(120.0 321.6 672.4)" fill="currentColor" opacity="0.35"/>
      <ellipse cx="313.2" cy="657.8" rx="9.8" ry="5.0" transform="rotate(180.0 313.2 657.8)" fill="currentColor" opacity="0.35"/>
      <ellipse cx="321.6" cy="643.3" rx="9.8" ry="5.0" transform="rotate(240.0 321.6 643.3)" fill="currentColor" opacity="0.35"/>
      <ellipse cx="338.4" cy="643.3" rx="9.8" ry="5.0" transform="rotate(300.0 338.4 643.3)" fill="currentColor" opacity="0.35"/>
      <circle cx="330.00000000000006" cy="657.8460969082653" r="8.96" fill="currentColor" opacity="0.7"/>
    <ellipse cx="242.15390309173472" cy="570" rx="24" ry="9.600000000000001" transform="rotate(240.00000000000003 242.15390309173472 570)" fill="currentColor" opacity="0.32"/>
    <circle cx="210" cy="450.00000000000006" r="30" fill="currentColor" opacity="0.18"/>
      <circle cx="210" cy="450.00000000000006" r="19.5" fill="currentColor" opacity="0.30"/>
      <circle cx="210" cy="450.00000000000006" r="13.5" fill="currentColor" opacity="0.55"/>
      <path d="M205.275 447.30000000000007 Q210 440.55000000000007 214.725 447.30000000000007"/>
      <path d="M210 450.00000000000006 Q214.05 451.3500000000001 211.35 455.40000000000003"/>
    <ellipse cx="259.0" cy="330.0" rx="9.8" ry="5.0" transform="rotate(0.0 259.0 330.0)" fill="currentColor" opacity="0.35"/>
      <ellipse cx="250.6" cy="344.5" rx="9.8" ry="5.0" transform="rotate(60.0 250.6 344.5)" fill="currentColor" opacity="0.35"/>
      <ellipse cx="233.8" cy="344.5" rx="9.8" ry="5.0" transform="rotate(120.0 233.8 344.5)" fill="currentColor" opacity="0.35"/>
      <ellipse cx="225.4" cy="330.0" rx="9.8" ry="5.0" transform="rotate(180.0 225.4 330.0)" fill="currentColor" opacity="0.35"/>
      <ellipse cx="233.8" cy="315.5" rx="9.8" ry="5.0" transform="rotate(240.0 233.8 315.5)" fill="currentColor" opacity="0.35"/>
      <ellipse cx="250.6" cy="315.5" rx="9.8" ry="5.0" transform="rotate(300.0 250.6 315.5)" fill="currentColor" opacity="0.35"/>
      <circle cx="242.1539030917347" cy="330.00000000000006" r="8.96" fill="currentColor" opacity="0.7"/>
    <ellipse cx="329.9999999999999" cy="242.15390309173478" rx="24" ry="9.600000000000001" transform="rotate(330 329.9999999999999 242.15390309173478)" fill="currentColor" opacity="0.32"/>
    <circle cx="449.99999999999994" cy="210" r="30" fill="currentColor" opacity="0.18"/>
      <circle cx="449.99999999999994" cy="210" r="19.5" fill="currentColor" opacity="0.30"/>
      <circle cx="449.99999999999994" cy="210" r="13.5" fill="currentColor" opacity="0.55"/>
      <path d="M445.2749999999999 207.3 Q449.99999999999994 200.55 454.72499999999997 207.3"/>
      <path d="M449.99999999999994 210 Q454.04999999999995 211.35 451.34999999999997 215.4"/>
    <ellipse cx="586.8" cy="242.2" rx="9.8" ry="5.0" transform="rotate(0.0 586.8 242.2)" fill="currentColor" opacity="0.35"/>
      <ellipse cx="578.4" cy="256.7" rx="9.8" ry="5.0" transform="rotate(60.0 578.4 256.7)" fill="currentColor" opacity="0.35"/>
      <ellipse cx="561.6" cy="256.7" rx="9.8" ry="5.0" transform="rotate(120.0 561.6 256.7)" fill="currentColor" opacity="0.35"/>
      <ellipse cx="553.2" cy="242.2" rx="9.8" ry="5.0" transform="rotate(180.0 553.2 242.2)" fill="currentColor" opacity="0.35"/>
      <ellipse cx="561.6" cy="227.6" rx="9.8" ry="5.0" transform="rotate(240.0 561.6 227.6)" fill="currentColor" opacity="0.35"/>
      <ellipse cx="578.4" cy="227.6" rx="9.8" ry="5.0" transform="rotate(300.0 578.4 227.6)" fill="currentColor" opacity="0.35"/>
      <circle cx="570" cy="242.15390309173475" r="8.96" fill="currentColor" opacity="0.7"/>
    <ellipse cx="657.8460969082653" cy="329.9999999999999" rx="24" ry="9.600000000000001" transform="rotate(419.99999999999994 657.8460969082653 329.9999999999999)" fill="currentColor" opacity="0.32"/>
  </g>
</svg>
