<?xml version="1.0" encoding="UTF-8"?>
<svg xmlns="http://www.w3.org/2000/svg" width="900" height="900" viewBox="0 0 900 900" fill="none" role="img" aria-label="wedding-essentials-14">
  <g stroke="currentColor" stroke-width="4" stroke-linecap="round" stroke-linejoin="round" opacity="0.9">
<ellipse cx="220" cy="294.44444444444446" rx="28" ry="11.200000000000001" transform="rotate(-65 220 294.44444444444446)" fill="currentColor" opacity="0.32"/>
      <ellipse cx="680" cy="294.44444444444446" rx="28" ry="11.200000000000001" transform="rotate(65 680 294.44444444444446)" fill="currentColor" opacity="0.32"/>
    <ellipse cx="220" cy="338.8888888888889" rx="28" ry="11.200000000000001" transform="rotate(-65 220 338.8888888888889)" fill="currentColor" opacity="0.32"/>
      <ellipse cx="680" cy="338.8888888888889" rx="28" ry="11.200000000000001" transform="rotate(65 680 338.8888888888889)" fill="currentColor" opacity="0.32"/>
    <ellipse cx="220" cy="383.3333333333333" rx="28" ry="11.200000000000001" transform="rotate(-65 220 383.3333333333333)" fill="currentColor" opacity="0.32"/>
      <ellipse cx="680" cy="383.3333333333333" rx="28" ry="11.200000000000001" transform="rotate(65 680 383.3333333333333)" fill="currentColor" opacity="0.32"/>
    <ellipse cx="220" cy="427.77777777777777" rx="28" ry="11.200000000000001" transform="rotate(-65 220 427.77777777777777)" fill="currentColor" opacity="0.32"/>
      <ellipse cx="680" cy="427.77777777777777" rx="28" ry="11.200000000000001" transform="rotate(65 680 427.77777777777777)" fill="currentColor" opacity="0.32"/>
    <ellipse cx="220" cy="472.22222222222223" rx="28" ry="11.200000000000001" transform="rotate(-65 220 472.22222222222223)" fill="currentColor" opacity="0.32"/>
      <ellipse cx="680" cy="472.22222222222223" rx="28" ry="11.200000000000001" transform="rotate(65 680 472.22222222222223)" fill="currentColor" opacity="0.32"/>
    <ellipse cx="220" cy="516.6666666666666" rx="28" ry="11.200000000000001" transform="rotate(-65 220 516.6666666666666)" fill="currentColor" opacity="0.32"/>
      <ellipse cx="680" cy="516.6666666666666" rx="28" ry="11.200000000000001" transform="rotate(65 680 516.6666666666666)" fill="currentColor" opacity="0.32"/>
    <ellipse cx="220" cy="561.1111111111111" rx="28" ry="11.200000000000001" transform="rotate(-65 220 561.1111111111111)" fill="currentColor" opacity="0.32"/>
      <ellipse cx="680" cy="561.1111111111111" rx="28" ry="11.200000000000001" transform="rotate(65 680 561.1111111111111)" fill="currentColor" opacity="0.32"/>
    <ellipse cx="220" cy="605.5555555555555" rx="28" ry="11.200000000000001" transform="rotate(-65 220 605.5555555555555)" fill="currentColor" opacity="0.32"/>
      <ellipse cx="680" cy="605.5555555555555" rx="28" ry="11.200000000000001" transform="rotate(65 680 605.5555555555555)" fill="currentColor" opacity="0.32"/>
    <path d="M220 670 Q450 740 680 670"/>
    <text x="450" y="430" text-anchor="middle" font-family="Georgia, serif" font-size="48" letter-spacing="6" fill="currentColor">JUST</text>
    <text x="450" y="500" text-anchor="middle" font-family="Georgia, serif" font-size="48" letter-spacing="6" fill="currentColor">MARRIED</text>
  </g>
</svg>
