<?xml version="1.0" encoding="UTF-8"?>
<svg xmlns="http://www.w3.org/2000/svg" width="900" height="900" viewBox="0 0 900 900" fill="none" role="img" aria-label="gold-ornaments-6">
  <g stroke="currentColor" stroke-width="6" stroke-linecap="round" stroke-linejoin="round" opacity="0.9">
<path d="M150 450 Q200 250 450 250 Q700 250 750 450 Q700 650 450 650 Q200 650 150 450 Z"/>
    <path d="M250 450 Q300 350 450 350 Q600 350 650 450 Q600 550 450 550 Q300 550 250 450 Z" opacity="0.5"/>
    <circle cx="450" cy="450" r="16" fill="currentColor" opacity="0.6"/>
    <path d="M450 250 Q420 200 450 150 Q480 200 450 250"/>
    <path d="M450 650 Q420 700 450 750 Q480 700 450 650"/>
  </g>
</svg>
