<?xml version="1.0" encoding="UTF-8"?>
<svg xmlns="http://www.w3.org/2000/svg" width="900" height="900" viewBox="0 0 900 900" fill="none" role="img" aria-label="floral-corners-5">
  <g stroke="currentColor" stroke-width="7" stroke-linecap="round" stroke-linejoin="round" opacity="0.85">
<path d="M180 800 Q200 600 280 500"/>
    <path d="M180 800 Q220 650 320 580"/>
    <path d="M180 800 Q260 700 360 660"/>
    <circle cx="290" cy="480" r="60" fill="currentColor" opacity="0.18"/>
      <circle cx="290" cy="480" r="39" fill="currentColor" opacity="0.30"/>
      <circle cx="290" cy="480" r="27" fill="currentColor" opacity="0.55"/>
      <path d="M280.55 474.6 Q290 461.1 299.45 474.6"/>
      <path d="M290 480 Q298.1 482.7 292.7 490.8"/>
    <ellipse cx="390.0" cy="560.0" rx="17.5" ry="9.0" transform="rotate(0.0 390.0 560.0)" fill="currentColor" opacity="0.35"/>
      <ellipse cx="375.0" cy="586.0" rx="17.5" ry="9.0" transform="rotate(60.0 375.0 586.0)" fill="currentColor" opacity="0.35"/>
      <ellipse cx="345.0" cy="586.0" rx="17.5" ry="9.0" transform="rotate(120.0 345.0 586.0)" fill="currentColor" opacity="0.35"/>
      <ellipse cx="330.0" cy="560.0" rx="17.5" ry="9.0" transform="rotate(180.0 330.0 560.0)" fill="currentColor" opacity="0.35"/>
      <ellipse cx="345.0" cy="534.0" rx="17.5" ry="9.0" transform="rotate(240.0 345.0 534.0)" fill="currentColor" opacity="0.35"/>
      <ellipse cx="375.0" cy="534.0" rx="17.5" ry="9.0" transform="rotate(300.0 375.0 534.0)" fill="currentColor" opacity="0.35"/>
      <circle cx="360" cy="560" r="16" fill="currentColor" opacity="0.7"/>
    <path d="M420 670 Q402 658 402 628 Q411 643 420 637 Q429 643 438 628 Q438 658 420 670 Z" fill="currentColor" opacity="0.32"/>
      <path d="M420 670 L420 700"/>
      <path d="M420 686.8 Q441.6 676 439.8 664"/>
    <ellipse cx="220" cy="680" rx="28" ry="11.200000000000001" transform="rotate(30 220 680)" fill="currentColor" opacity="0.32"/>
    <ellipse cx="280" cy="600" rx="26" ry="10.4" transform="rotate(50 280 600)" fill="currentColor" opacity="0.32"/>
  </g>
</svg>
