<?xml version="1.0" encoding="UTF-8"?>
<svg xmlns="http://www.w3.org/2000/svg" width="900" height="900" viewBox="0 0 900 900" fill="none" role="img" aria-label="floral-corners-12">
  <g stroke="currentColor" stroke-width="5" stroke-linecap="round" stroke-linejoin="round" opacity="0.85">
<ellipse cx="155.6" cy="140.0" rx="9.1" ry="4.7" transform="rotate(0.0 155.6 140.0)" fill="currentColor" opacity="0.35"/>
      <ellipse cx="147.8" cy="153.5" rx="9.1" ry="4.7" transform="rotate(60.0 147.8 153.5)" fill="currentColor" opacity="0.35"/>
      <ellipse cx="132.2" cy="153.5" rx="9.1" ry="4.7" transform="rotate(120.0 132.2 153.5)" fill="currentColor" opacity="0.35"/>
      <ellipse cx="124.4" cy="140.0" rx="9.1" ry="4.7" transform="rotate(180.0 124.4 140.0)" fill="currentColor" opacity="0.35"/>
      <ellipse cx="132.2" cy="126.5" rx="9.1" ry="4.7" transform="rotate(240.0 132.2 126.5)" fill="currentColor" opacity="0.35"/>
      <ellipse cx="147.8" cy="126.5" rx="9.1" ry="4.7" transform="rotate(300.0 147.8 126.5)" fill="currentColor" opacity="0.35"/>
      <circle cx="140" cy="140" r="8.32" fill="currentColor" opacity="0.7"/>
    <path d="M220 225 Q205 215 205 190 Q212.5 202.5 220 197.5 Q227.5 202.5 235 190 Q235 215 220 225 Z" fill="currentColor" opacity="0.32"/>
      <path d="M220 225 L220 250"/>
      <path d="M220 239 Q238 230 236.5 220"/>
    <ellipse cx="180" cy="170" rx="20" ry="8" transform="rotate(-30 180 170)" fill="currentColor" opacity="0.32"/>
    <circle cx="760" cy="140" r="35" fill="currentColor" opacity="0.18"/>
      <circle cx="760" cy="140" r="22.75" fill="currentColor" opacity="0.30"/>
      <circle cx="760" cy="140" r="15.75" fill="currentColor" opacity="0.55"/>
      <path d="M754.4875 136.85 Q760 128.975 765.5125 136.85"/>
      <path d="M760 140 Q764.725 141.575 761.575 146.3"/>
    <ellipse cx="695.6" cy="200.0" rx="9.1" ry="4.7" transform="rotate(0.0 695.6 200.0)" fill="currentColor" opacity="0.35"/>
      <ellipse cx="687.8" cy="213.5" rx="9.1" ry="4.7" transform="rotate(60.0 687.8 213.5)" fill="currentColor" opacity="0.35"/>
      <ellipse cx="672.2" cy="213.5" rx="9.1" ry="4.7" transform="rotate(120.0 672.2 213.5)" fill="currentColor" opacity="0.35"/>
      <ellipse cx="664.4" cy="200.0" rx="9.1" ry="4.7" transform="rotate(180.0 664.4 200.0)" fill="currentColor" opacity="0.35"/>
      <ellipse cx="672.2" cy="186.5" rx="9.1" ry="4.7" transform="rotate(240.0 672.2 186.5)" fill="currentColor" opacity="0.35"/>
      <ellipse cx="687.8" cy="186.5" rx="9.1" ry="4.7" transform="rotate(300.0 687.8 186.5)" fill="currentColor" opacity="0.35"/>
      <circle cx="680" cy="200" r="8.32" fill="currentColor" opacity="0.7"/>
    <ellipse cx="720" cy="170" rx="20" ry="8" transform="rotate(30 720 170)" fill="currentColor" opacity="0.32"/>
    <path d="M140 745 Q125 735 125 710 Q132.5 722.5 140 717.5 Q147.5 722.5 155 710 Q155 735 140 745 Z" fill="currentColor" opacity="0.32"/>
      <path d="M140 745 L140 770"/>
      <path d="M140 759 Q158 750 156.5 740"/>
    <ellipse cx="235.6" cy="760.0" rx="9.1" ry="4.7" transform="rotate(0.0 235.6 760.0)" fill="currentColor" opacity="0.35"/>
      <ellipse cx="227.8" cy="773.5" rx="9.1" ry="4.7" transform="rotate(60.0 227.8 773.5)" fill="currentColor" opacity="0.35"/>
      <ellipse cx="212.2" cy="773.5" rx="9.1" ry="4.7" transform="rotate(120.0 212.2 773.5)" fill="currentColor" opacity="0.35"/>
      <ellipse cx="204.4" cy="760.0" rx="9.1" ry="4.7" transform="rotate(180.0 204.4 760.0)" fill="currentColor" opacity="0.35"/>
      <ellipse cx="212.2" cy="746.5" rx="9.1" ry="4.7" transform="rotate(240.0 212.2 746.5)" fill="currentColor" opacity="0.35"/>
      <ellipse cx="227.8" cy="746.5" rx="9.1" ry="4.7" transform="rotate(300.0 227.8 746.5)" fill="currentColor" opacity="0.35"/>
      <circle cx="220" cy="760" r="8.32" fill="currentColor" opacity="0.7"/>
    <ellipse cx="180" cy="740" rx="20" ry="8" transform="rotate(30 180 740)" fill="currentColor" opacity="0.32"/>
    <circle cx="760" cy="760" r="35" fill="currentColor" opacity="0.18"/>
      <circle cx="760" cy="760" r="22.75" fill="currentColor" opacity="0.30"/>
      <circle cx="760" cy="760" r="15.75" fill="currentColor" opacity="0.55"/>
      <path d="M754.4875 756.85 Q760 748.975 765.5125 756.85"/>
      <path d="M760 760 Q764.725 761.575 761.575 766.3"/>
    <path d="M680 725 Q665 715 665 690 Q672.5 702.5 680 697.5 Q687.5 702.5 695 690 Q695 715 680 725 Z" fill="currentColor" opacity="0.32"/>
      <path d="M680 725 L680 750"/>
      <path d="M680 739 Q698 730 696.5 720"/>
    <ellipse cx="720" cy="730" rx="20" ry="8" transform="rotate(-30 720 730)" fill="currentColor" opacity="0.32"/>
  </g>
</svg>
