<?xml version="1.0" encoding="UTF-8"?>
<svg xmlns="http://www.w3.org/2000/svg" width="900" height="900" viewBox="0 0 900 900" fill="none" role="img" aria-label="floral-corners-10">
  <g stroke="currentColor" stroke-width="5" stroke-linecap="round" stroke-linejoin="round" opacity="0.85">
<path d="M120 350 Q200 300 280 320 Q360 340 420 280"/>
    <path d="M180 220 Q260 200 320 240"/>
    <circle cx="200.0" cy="303.5" r="12.0" fill="currentColor" opacity="0.32"/>
      <circle cx="215.7" cy="314.9" r="12.0" fill="currentColor" opacity="0.32"/>
      <circle cx="209.7" cy="333.3" r="12.0" fill="currentColor" opacity="0.32"/>
      <circle cx="190.3" cy="333.3" r="12.0" fill="currentColor" opacity="0.32"/>
      <circle cx="184.3" cy="314.9" r="12.0" fill="currentColor" opacity="0.32"/>
      <circle cx="200" cy="320" r="5.4" fill="currentColor" opacity="0.7"/>
    <circle cx="320.0" cy="274.6" r="11.2" fill="currentColor" opacity="0.32"/>
      <circle cx="334.6" cy="285.2" r="11.2" fill="currentColor" opacity="0.32"/>
      <circle cx="329.1" cy="302.5" r="11.2" fill="currentColor" opacity="0.32"/>
      <circle cx="310.9" cy="302.5" r="11.2" fill="currentColor" opacity="0.32"/>
      <circle cx="305.4" cy="285.2" r="11.2" fill="currentColor" opacity="0.32"/>
      <circle cx="320" cy="290" r="5.0" fill="currentColor" opacity="0.7"/>
    <circle cx="380.0" cy="256.8" r="9.6" fill="currentColor" opacity="0.32"/>
      <circle cx="392.6" cy="265.9" r="9.6" fill="currentColor" opacity="0.32"/>
      <circle cx="387.8" cy="280.7" r="9.6" fill="currentColor" opacity="0.32"/>
      <circle cx="372.2" cy="280.7" r="9.6" fill="currentColor" opacity="0.32"/>
      <circle cx="367.4" cy="265.9" r="9.6" fill="currentColor" opacity="0.32"/>
      <circle cx="380" cy="270" r="4.3" fill="currentColor" opacity="0.7"/>
    <circle cx="240.0" cy="215.7" r="10.4" fill="currentColor" opacity="0.32"/>
      <circle cx="253.6" cy="225.6" r="10.4" fill="currentColor" opacity="0.32"/>
      <circle cx="248.4" cy="241.6" r="10.4" fill="currentColor" opacity="0.32"/>
      <circle cx="231.6" cy="241.6" r="10.4" fill="currentColor" opacity="0.32"/>
      <circle cx="226.4" cy="225.6" r="10.4" fill="currentColor" opacity="0.32"/>
      <circle cx="240" cy="230" r="4.7" fill="currentColor" opacity="0.7"/>
    <circle cx="310.0" cy="217.9" r="8.8" fill="currentColor" opacity="0.32"/>
      <circle cx="321.5" cy="226.3" r="8.8" fill="currentColor" opacity="0.32"/>
      <circle cx="317.1" cy="239.8" r="8.8" fill="currentColor" opacity="0.32"/>
      <circle cx="302.9" cy="239.8" r="8.8" fill="currentColor" opacity="0.32"/>
      <circle cx="298.5" cy="226.3" r="8.8" fill="currentColor" opacity="0.32"/>
      <circle cx="310" cy="230" r="4.0" fill="currentColor" opacity="0.7"/>
  </g>
</svg>
