<?xml version="1.0" encoding="UTF-8"?>
<svg xmlns="http://www.w3.org/2000/svg" width="900" height="900" viewBox="0 0 900 900" fill="none" role="img" aria-label="floral-corners-9">
  <g stroke="currentColor" stroke-width="5" stroke-linecap="round" stroke-linejoin="round" opacity="0.85">
<g transform="translate(180 180) rotate(30)">
        <path d="M0 0 L120 0"/>
        <circle cx="20" cy="0" r="7" fill="currentColor" opacity="0.6"/><circle cx="40" cy="0" r="7" fill="currentColor" opacity="0.6"/><circle cx="60" cy="0" r="7" fill="currentColor" opacity="0.6"/><circle cx="80" cy="0" r="7" fill="currentColor" opacity="0.6"/><circle cx="100" cy="0" r="7" fill="currentColor" opacity="0.6"/>
        <circle cx="20" cy="-10" r="5" fill="currentColor" opacity="0.4"/><circle cx="20" cy="10" r="5" fill="currentColor" opacity="0.4"/>
        <circle cx="60" cy="-10" r="5" fill="currentColor" opacity="0.4"/><circle cx="60" cy="10" r="5" fill="currentColor" opacity="0.4"/>
        <circle cx="100" cy="-10" r="5" fill="currentColor" opacity="0.4"/><circle cx="100" cy="10" r="5" fill="currentColor" opacity="0.4"/>
      </g>
    <g transform="translate(720 180) rotate(60)">
        <path d="M0 0 L120 0"/>
        <circle cx="20" cy="0" r="7" fill="currentColor" opacity="0.6"/><circle cx="40" cy="0" r="7" fill="currentColor" opacity="0.6"/><circle cx="60" cy="0" r="7" fill="currentColor" opacity="0.6"/><circle cx="80" cy="0" r="7" fill="currentColor" opacity="0.6"/><circle cx="100" cy="0" r="7" fill="currentColor" opacity="0.6"/>
        <circle cx="20" cy="-10" r="5" fill="currentColor" opacity="0.4"/><circle cx="20" cy="10" r="5" fill="currentColor" opacity="0.4"/>
        <circle cx="60" cy="-10" r="5" fill="currentColor" opacity="0.4"/><circle cx="60" cy="10" r="5" fill="currentColor" opacity="0.4"/>
        <circle cx="100" cy="-10" r="5" fill="currentColor" opacity="0.4"/><circle cx="100" cy="10" r="5" fill="currentColor" opacity="0.4"/>
      </g>
    <g transform="translate(720 720) rotate(120)">
        <path d="M0 0 L120 0"/>
        <circle cx="20" cy="0" r="7" fill="currentColor" opacity="0.6"/><circle cx="40" cy="0" r="7" fill="currentColor" opacity="0.6"/><circle cx="60" cy="0" r="7" fill="currentColor" opacity="0.6"/><circle cx="80" cy="0" r="7" fill="currentColor" opacity="0.6"/><circle cx="100" cy="0" r="7" fill="currentColor" opacity="0.6"/>
        <circle cx="20" cy="-10" r="5" fill="currentColor" opacity="0.4"/><circle cx="20" cy="10" r="5" fill="currentColor" opacity="0.4"/>
        <circle cx="60" cy="-10" r="5" fill="currentColor" opacity="0.4"/><circle cx="60" cy="10" r="5" fill="currentColor" opacity="0.4"/>
        <circle cx="100" cy="-10" r="5" fill="currentColor" opacity="0.4"/><circle cx="100" cy="10" r="5" fill="currentColor" opacity="0.4"/>
      </g>
    <g transform="translate(180 720) rotate(150)">
        <path d="M0 0 L120 0"/>
        <circle cx="20" cy="0" r="7" fill="currentColor" opacity="0.6"/><circle cx="40" cy="0" r="7" fill="currentColor" opacity="0.6"/><circle cx="60" cy="0" r="7" fill="currentColor" opacity="0.6"/><circle cx="80" cy="0" r="7" fill="currentColor" opacity="0.6"/><circle cx="100" cy="0" r="7" fill="currentColor" opacity="0.6"/>
        <circle cx="20" cy="-10" r="5" fill="currentColor" opacity="0.4"/><circle cx="20" cy="10" r="5" fill="currentColor" opacity="0.4"/>
        <circle cx="60" cy="-10" r="5" fill="currentColor" opacity="0.4"/><circle cx="60" cy="10" r="5" fill="currentColor" opacity="0.4"/>
        <circle cx="100" cy="-10" r="5" fill="currentColor" opacity="0.4"/><circle cx="100" cy="10" r="5" fill="currentColor" opacity="0.4"/>
      </g>
  </g>
</svg>
