<?xml version="1.0" encoding="UTF-8"?>
<svg xmlns="http://www.w3.org/2000/svg" width="900" height="900" viewBox="0 0 900 900" fill="none" role="img" aria-label="floral-corners-8">
  <g stroke="currentColor" stroke-width="5" stroke-linecap="round" stroke-linejoin="round" opacity="0.85">
<ellipse cx="178.0" cy="160.0" rx="10.5" ry="5.4" transform="rotate(0.0 178.0 160.0)" fill="currentColor" opacity="0.35"/>
      <ellipse cx="169.0" cy="175.6" rx="10.5" ry="5.4" transform="rotate(60.0 169.0 175.6)" fill="currentColor" opacity="0.35"/>
      <ellipse cx="151.0" cy="175.6" rx="10.5" ry="5.4" transform="rotate(120.0 151.0 175.6)" fill="currentColor" opacity="0.35"/>
      <ellipse cx="142.0" cy="160.0" rx="10.5" ry="5.4" transform="rotate(180.0 142.0 160.0)" fill="currentColor" opacity="0.35"/>
      <ellipse cx="151.0" cy="144.4" rx="10.5" ry="5.4" transform="rotate(240.0 151.0 144.4)" fill="currentColor" opacity="0.35"/>
      <ellipse cx="169.0" cy="144.4" rx="10.5" ry="5.4" transform="rotate(300.0 169.0 144.4)" fill="currentColor" opacity="0.35"/>
      <circle cx="160" cy="160" r="9.6" fill="currentColor" opacity="0.7"/>
    <ellipse cx="223.2" cy="185.0" rx="7.7" ry="4.0" transform="rotate(0.0 223.2 185.0)" fill="currentColor" opacity="0.35"/>
      <ellipse cx="216.6" cy="196.4" rx="7.7" ry="4.0" transform="rotate(60.0 216.6 196.4)" fill="currentColor" opacity="0.35"/>
      <ellipse cx="203.4" cy="196.4" rx="7.7" ry="4.0" transform="rotate(120.0 203.4 196.4)" fill="currentColor" opacity="0.35"/>
      <ellipse cx="196.8" cy="185.0" rx="7.7" ry="4.0" transform="rotate(180.0 196.8 185.0)" fill="currentColor" opacity="0.35"/>
      <ellipse cx="203.4" cy="173.6" rx="7.7" ry="4.0" transform="rotate(240.0 203.4 173.6)" fill="currentColor" opacity="0.35"/>
      <ellipse cx="216.6" cy="173.6" rx="7.7" ry="4.0" transform="rotate(300.0 216.6 173.6)" fill="currentColor" opacity="0.35"/>
      <circle cx="210" cy="185" r="7.04" fill="currentColor" opacity="0.7"/>
    <ellipse cx="198.2" cy="220.0" rx="7.7" ry="4.0" transform="rotate(0.0 198.2 220.0)" fill="currentColor" opacity="0.35"/>
      <ellipse cx="191.6" cy="231.4" rx="7.7" ry="4.0" transform="rotate(60.0 191.6 231.4)" fill="currentColor" opacity="0.35"/>
      <ellipse cx="178.4" cy="231.4" rx="7.7" ry="4.0" transform="rotate(120.0 178.4 231.4)" fill="currentColor" opacity="0.35"/>
      <ellipse cx="171.8" cy="220.0" rx="7.7" ry="4.0" transform="rotate(180.0 171.8 220.0)" fill="currentColor" opacity="0.35"/>
      <ellipse cx="178.4" cy="208.6" rx="7.7" ry="4.0" transform="rotate(240.0 178.4 208.6)" fill="currentColor" opacity="0.35"/>
      <ellipse cx="191.6" cy="208.6" rx="7.7" ry="4.0" transform="rotate(300.0 191.6 208.6)" fill="currentColor" opacity="0.35"/>
      <circle cx="185" cy="220" r="7.04" fill="currentColor" opacity="0.7"/>
    <ellipse cx="758.0" cy="160.0" rx="10.5" ry="5.4" transform="rotate(0.0 758.0 160.0)" fill="currentColor" opacity="0.35"/>
      <ellipse cx="749.0" cy="175.6" rx="10.5" ry="5.4" transform="rotate(60.0 749.0 175.6)" fill="currentColor" opacity="0.35"/>
      <ellipse cx="731.0" cy="175.6" rx="10.5" ry="5.4" transform="rotate(120.0 731.0 175.6)" fill="currentColor" opacity="0.35"/>
      <ellipse cx="722.0" cy="160.0" rx="10.5" ry="5.4" transform="rotate(180.0 722.0 160.0)" fill="currentColor" opacity="0.35"/>
      <ellipse cx="731.0" cy="144.4" rx="10.5" ry="5.4" transform="rotate(240.0 731.0 144.4)" fill="currentColor" opacity="0.35"/>
      <ellipse cx="749.0" cy="144.4" rx="10.5" ry="5.4" transform="rotate(300.0 749.0 144.4)" fill="currentColor" opacity="0.35"/>
      <circle cx="740" cy="160" r="9.6" fill="currentColor" opacity="0.7"/>
    <ellipse cx="803.2" cy="185.0" rx="7.7" ry="4.0" transform="rotate(0.0 803.2 185.0)" fill="currentColor" opacity="0.35"/>
      <ellipse cx="796.6" cy="196.4" rx="7.7" ry="4.0" transform="rotate(60.0 796.6 196.4)" fill="currentColor" opacity="0.35"/>
      <ellipse cx="783.4" cy="196.4" rx="7.7" ry="4.0" transform="rotate(120.0 783.4 196.4)" fill="currentColor" opacity="0.35"/>
      <ellipse cx="776.8" cy="185.0" rx="7.7" ry="4.0" transform="rotate(180.0 776.8 185.0)" fill="currentColor" opacity="0.35"/>
      <ellipse cx="783.4" cy="173.6" rx="7.7" ry="4.0" transform="rotate(240.0 783.4 173.6)" fill="currentColor" opacity="0.35"/>
      <ellipse cx="796.6" cy="173.6" rx="7.7" ry="4.0" transform="rotate(300.0 796.6 173.6)" fill="currentColor" opacity="0.35"/>
      <circle cx="790" cy="185" r="7.04" fill="currentColor" opacity="0.7"/>
    <ellipse cx="778.2" cy="220.0" rx="7.7" ry="4.0" transform="rotate(0.0 778.2 220.0)" fill="currentColor" opacity="0.35"/>
      <ellipse cx="771.6" cy="231.4" rx="7.7" ry="4.0" transform="rotate(60.0 771.6 231.4)" fill="currentColor" opacity="0.35"/>
      <ellipse cx="758.4" cy="231.4" rx="7.7" ry="4.0" transform="rotate(120.0 758.4 231.4)" fill="currentColor" opacity="0.35"/>
      <ellipse cx="751.8" cy="220.0" rx="7.7" ry="4.0" transform="rotate(180.0 751.8 220.0)" fill="currentColor" opacity="0.35"/>
      <ellipse cx="758.4" cy="208.6" rx="7.7" ry="4.0" transform="rotate(240.0 758.4 208.6)" fill="currentColor" opacity="0.35"/>
      <ellipse cx="771.6" cy="208.6" rx="7.7" ry="4.0" transform="rotate(300.0 771.6 208.6)" fill="currentColor" opacity="0.35"/>
      <circle cx="765" cy="220" r="7.04" fill="currentColor" opacity="0.7"/>
    <ellipse cx="758.0" cy="740.0" rx="10.5" ry="5.4" transform="rotate(0.0 758.0 740.0)" fill="currentColor" opacity="0.35"/>
      <ellipse cx="749.0" cy="755.6" rx="10.5" ry="5.4" transform="rotate(60.0 749.0 755.6)" fill="currentColor" opacity="0.35"/>
      <ellipse cx="731.0" cy="755.6" rx="10.5" ry="5.4" transform="rotate(120.0 731.0 755.6)" fill="currentColor" opacity="0.35"/>
      <ellipse cx="722.0" cy="740.0" rx="10.5" ry="5.4" transform="rotate(180.0 722.0 740.0)" fill="currentColor" opacity="0.35"/>
      <ellipse cx="731.0" cy="724.4" rx="10.5" ry="5.4" transform="rotate(240.0 731.0 724.4)" fill="currentColor" opacity="0.35"/>
      <ellipse cx="749.0" cy="724.4" rx="10.5" ry="5.4" transform="rotate(300.0 749.0 724.4)" fill="currentColor" opacity="0.35"/>
      <circle cx="740" cy="740" r="9.6" fill="currentColor" opacity="0.7"/>
    <ellipse cx="803.2" cy="765.0" rx="7.7" ry="4.0" transform="rotate(0.0 803.2 765.0)" fill="currentColor" opacity="0.35"/>
      <ellipse cx="796.6" cy="776.4" rx="7.7" ry="4.0" transform="rotate(60.0 796.6 776.4)" fill="currentColor" opacity="0.35"/>
      <ellipse cx="783.4" cy="776.4" rx="7.7" ry="4.0" transform="rotate(120.0 783.4 776.4)" fill="currentColor" opacity="0.35"/>
      <ellipse cx="776.8" cy="765.0" rx="7.7" ry="4.0" transform="rotate(180.0 776.8 765.0)" fill="currentColor" opacity="0.35"/>
      <ellipse cx="783.4" cy="753.6" rx="7.7" ry="4.0" transform="rotate(240.0 783.4 753.6)" fill="currentColor" opacity="0.35"/>
      <ellipse cx="796.6" cy="753.6" rx="7.7" ry="4.0" transform="rotate(300.0 796.6 753.6)" fill="currentColor" opacity="0.35"/>
      <circle cx="790" cy="765" r="7.04" fill="currentColor" opacity="0.7"/>
    <ellipse cx="778.2" cy="800.0" rx="7.7" ry="4.0" transform="rotate(0.0 778.2 800.0)" fill="currentColor" opacity="0.35"/>
      <ellipse cx="771.6" cy="811.4" rx="7.7" ry="4.0" transform="rotate(60.0 771.6 811.4)" fill="currentColor" opacity="0.35"/>
      <ellipse cx="758.4" cy="811.4" rx="7.7" ry="4.0" transform="rotate(120.0 758.4 811.4)" fill="currentColor" opacity="0.35"/>
      <ellipse cx="751.8" cy="800.0" rx="7.7" ry="4.0" transform="rotate(180.0 751.8 800.0)" fill="currentColor" opacity="0.35"/>
      <ellipse cx="758.4" cy="788.6" rx="7.7" ry="4.0" transform="rotate(240.0 758.4 788.6)" fill="currentColor" opacity="0.35"/>
      <ellipse cx="771.6" cy="788.6" rx="7.7" ry="4.0" transform="rotate(300.0 771.6 788.6)" fill="currentColor" opacity="0.35"/>
      <circle cx="765" cy="800" r="7.04" fill="currentColor" opacity="0.7"/>
    <ellipse cx="178.0" cy="740.0" rx="10.5" ry="5.4" transform="rotate(0.0 178.0 740.0)" fill="currentColor" opacity="0.35"/>
      <ellipse cx="169.0" cy="755.6" rx="10.5" ry="5.4" transform="rotate(60.0 169.0 755.6)" fill="currentColor" opacity="0.35"/>
      <ellipse cx="151.0" cy="755.6" rx="10.5" ry="5.4" transform="rotate(120.0 151.0 755.6)" fill="currentColor" opacity="0.35"/>
      <ellipse cx="142.0" cy="740.0" rx="10.5" ry="5.4" transform="rotate(180.0 142.0 740.0)" fill="currentColor" opacity="0.35"/>
      <ellipse cx="151.0" cy="724.4" rx="10.5" ry="5.4" transform="rotate(240.0 151.0 724.4)" fill="currentColor" opacity="0.35"/>
      <ellipse cx="169.0" cy="724.4" rx="10.5" ry="5.4" transform="rotate(300.0 169.0 724.4)" fill="currentColor" opacity="0.35"/>
      <circle cx="160" cy="740" r="9.6" fill="currentColor" opacity="0.7"/>
    <ellipse cx="223.2" cy="765.0" rx="7.7" ry="4.0" transform="rotate(0.0 223.2 765.0)" fill="currentColor" opacity="0.35"/>
      <ellipse cx="216.6" cy="776.4" rx="7.7" ry="4.0" transform="rotate(60.0 216.6 776.4)" fill="currentColor" opacity="0.35"/>
      <ellipse cx="203.4" cy="776.4" rx="7.7" ry="4.0" transform="rotate(120.0 203.4 776.4)" fill="currentColor" opacity="0.35"/>
      <ellipse cx="196.8" cy="765.0" rx="7.7" ry="4.0" transform="rotate(180.0 196.8 765.0)" fill="currentColor" opacity="0.35"/>
      <ellipse cx="203.4" cy="753.6" rx="7.7" ry="4.0" transform="rotate(240.0 203.4 753.6)" fill="currentColor" opacity="0.35"/>
      <ellipse cx="216.6" cy="753.6" rx="7.7" ry="4.0" transform="rotate(300.0 216.6 753.6)" fill="currentColor" opacity="0.35"/>
      <circle cx="210" cy="765" r="7.04" fill="currentColor" opacity="0.7"/>
    <ellipse cx="198.2" cy="800.0" rx="7.7" ry="4.0" transform="rotate(0.0 198.2 800.0)" fill="currentColor" opacity="0.35"/>
      <ellipse cx="191.6" cy="811.4" rx="7.7" ry="4.0" transform="rotate(60.0 191.6 811.4)" fill="currentColor" opacity="0.35"/>
      <ellipse cx="178.4" cy="811.4" rx="7.7" ry="4.0" transform="rotate(120.0 178.4 811.4)" fill="currentColor" opacity="0.35"/>
      <ellipse cx="171.8" cy="800.0" rx="7.7" ry="4.0" transform="rotate(180.0 171.8 800.0)" fill="currentColor" opacity="0.35"/>
      <ellipse cx="178.4" cy="788.6" rx="7.7" ry="4.0" transform="rotate(240.0 178.4 788.6)" fill="currentColor" opacity="0.35"/>
      <ellipse cx="191.6" cy="788.6" rx="7.7" ry="4.0" transform="rotate(300.0 191.6 788.6)" fill="currentColor" opacity="0.35"/>
      <circle cx="185" cy="800" r="7.04" fill="currentColor" opacity="0.7"/>
  </g>
</svg>
