<?xml version="1.0" encoding="UTF-8"?>
<svg xmlns="http://www.w3.org/2000/svg" width="900" height="900" viewBox="0 0 900 900" fill="none" role="img" aria-label="floral-corners-7">
  <g stroke="currentColor" stroke-width="4" stroke-linecap="round" stroke-linejoin="round" opacity="0.9">
<path d="M120 200 L120 120 L200 120"/>
    <path d="M780 200 L780 120 L700 120"/>
    <path d="M120 700 L120 780 L200 780"/>
    <path d="M780 700 L780 780 L700 780"/>
    <ellipse cx="176.8" cy="160.0" rx="9.8" ry="5.0" transform="rotate(0.0 176.8 160.0)" fill="currentColor" opacity="0.35"/>
      <ellipse cx="168.4" cy="174.5" rx="9.8" ry="5.0" transform="rotate(60.0 168.4 174.5)" fill="currentColor" opacity="0.35"/>
      <ellipse cx="151.6" cy="174.5" rx="9.8" ry="5.0" transform="rotate(120.0 151.6 174.5)" fill="currentColor" opacity="0.35"/>
      <ellipse cx="143.2" cy="160.0" rx="9.8" ry="5.0" transform="rotate(180.0 143.2 160.0)" fill="currentColor" opacity="0.35"/>
      <ellipse cx="151.6" cy="145.5" rx="9.8" ry="5.0" transform="rotate(240.0 151.6 145.5)" fill="currentColor" opacity="0.35"/>
      <ellipse cx="168.4" cy="145.5" rx="9.8" ry="5.0" transform="rotate(300.0 168.4 145.5)" fill="currentColor" opacity="0.35"/>
      <circle cx="160" cy="160" r="8.96" fill="currentColor" opacity="0.7"/>
    <ellipse cx="756.8" cy="160.0" rx="9.8" ry="5.0" transform="rotate(0.0 756.8 160.0)" fill="currentColor" opacity="0.35"/>
      <ellipse cx="748.4" cy="174.5" rx="9.8" ry="5.0" transform="rotate(60.0 748.4 174.5)" fill="currentColor" opacity="0.35"/>
      <ellipse cx="731.6" cy="174.5" rx="9.8" ry="5.0" transform="rotate(120.0 731.6 174.5)" fill="currentColor" opacity="0.35"/>
      <ellipse cx="723.2" cy="160.0" rx="9.8" ry="5.0" transform="rotate(180.0 723.2 160.0)" fill="currentColor" opacity="0.35"/>
      <ellipse cx="731.6" cy="145.5" rx="9.8" ry="5.0" transform="rotate(240.0 731.6 145.5)" fill="currentColor" opacity="0.35"/>
      <ellipse cx="748.4" cy="145.5" rx="9.8" ry="5.0" transform="rotate(300.0 748.4 145.5)" fill="currentColor" opacity="0.35"/>
      <circle cx="740" cy="160" r="8.96" fill="currentColor" opacity="0.7"/>
    <ellipse cx="176.8" cy="740.0" rx="9.8" ry="5.0" transform="rotate(0.0 176.8 740.0)" fill="currentColor" opacity="0.35"/>
      <ellipse cx="168.4" cy="754.5" rx="9.8" ry="5.0" transform="rotate(60.0 168.4 754.5)" fill="currentColor" opacity="0.35"/>
      <ellipse cx="151.6" cy="754.5" rx="9.8" ry="5.0" transform="rotate(120.0 151.6 754.5)" fill="currentColor" opacity="0.35"/>
      <ellipse cx="143.2" cy="740.0" rx="9.8" ry="5.0" transform="rotate(180.0 143.2 740.0)" fill="currentColor" opacity="0.35"/>
      <ellipse cx="151.6" cy="725.5" rx="9.8" ry="5.0" transform="rotate(240.0 151.6 725.5)" fill="currentColor" opacity="0.35"/>
      <ellipse cx="168.4" cy="725.5" rx="9.8" ry="5.0" transform="rotate(300.0 168.4 725.5)" fill="currentColor" opacity="0.35"/>
      <circle cx="160" cy="740" r="8.96" fill="currentColor" opacity="0.7"/>
    <ellipse cx="756.8" cy="740.0" rx="9.8" ry="5.0" transform="rotate(0.0 756.8 740.0)" fill="currentColor" opacity="0.35"/>
      <ellipse cx="748.4" cy="754.5" rx="9.8" ry="5.0" transform="rotate(60.0 748.4 754.5)" fill="currentColor" opacity="0.35"/>
      <ellipse cx="731.6" cy="754.5" rx="9.8" ry="5.0" transform="rotate(120.0 731.6 754.5)" fill="currentColor" opacity="0.35"/>
      <ellipse cx="723.2" cy="740.0" rx="9.8" ry="5.0" transform="rotate(180.0 723.2 740.0)" fill="currentColor" opacity="0.35"/>
      <ellipse cx="731.6" cy="725.5" rx="9.8" ry="5.0" transform="rotate(240.0 731.6 725.5)" fill="currentColor" opacity="0.35"/>
      <ellipse cx="748.4" cy="725.5" rx="9.8" ry="5.0" transform="rotate(300.0 748.4 725.5)" fill="currentColor" opacity="0.35"/>
      <circle cx="740" cy="740" r="8.96" fill="currentColor" opacity="0.7"/>
  </g>
</svg>
