<?xml version="1.0" encoding="UTF-8"?>
<svg xmlns="http://www.w3.org/2000/svg" width="900" height="900" viewBox="0 0 900 900" fill="none" role="img" aria-label="floral-corners-11">
  <g stroke="currentColor" stroke-width="5" stroke-linecap="round" stroke-linejoin="round" opacity="0.85">
<path d="M120 120 Q200 200 220 320 Q240 460 200 580"/>
    <path d="M120 120 Q200 200 320 220 Q460 240 580 200"/>
    <ellipse cx="255.1" cy="242.2" rx="20" ry="11" fill="currentColor" opacity="0.4"/>
    <ellipse cx="218.2" cy="284.4" rx="20" ry="11" fill="currentColor" opacity="0.4"/>
    <ellipse cx="277.3" cy="326.7" rx="20" ry="11" fill="currentColor" opacity="0.4"/>
    <ellipse cx="240.4" cy="368.9" rx="20" ry="11" fill="currentColor" opacity="0.4"/>
    <ellipse cx="299.6" cy="411.1" rx="20" ry="11" fill="currentColor" opacity="0.4"/>
    <ellipse cx="262.7" cy="453.3" rx="20" ry="11" fill="currentColor" opacity="0.4"/>
    <ellipse cx="321.8" cy="495.6" rx="20" ry="11" fill="currentColor" opacity="0.4"/>
    <ellipse cx="284.9" cy="537.8" rx="20" ry="11" fill="currentColor" opacity="0.4"/>
    <ellipse cx="242.2" cy="255.1" rx="20" ry="11" fill="currentColor" opacity="0.4"/>
    <ellipse cx="284.4" cy="218.2" rx="20" ry="11" fill="currentColor" opacity="0.4"/>
    <ellipse cx="326.7" cy="277.3" rx="20" ry="11" fill="currentColor" opacity="0.4"/>
    <ellipse cx="368.9" cy="240.4" rx="20" ry="11" fill="currentColor" opacity="0.4"/>
    <ellipse cx="411.1" cy="299.6" rx="20" ry="11" fill="currentColor" opacity="0.4"/>
    <ellipse cx="453.3" cy="262.7" rx="20" ry="11" fill="currentColor" opacity="0.4"/>
    <ellipse cx="495.6" cy="321.8" rx="20" ry="11" fill="currentColor" opacity="0.4"/>
    <ellipse cx="537.8" cy="284.9" rx="20" ry="11" fill="currentColor" opacity="0.4"/>
  </g>
</svg>
