<?xml version="1.0" encoding="UTF-8"?>
<svg xmlns="http://www.w3.org/2000/svg" width="900" height="900" viewBox="0 0 900 900" fill="none" role="img" aria-label="floral-corners-2">
  <g stroke="currentColor" stroke-width="6" stroke-linecap="round" stroke-linejoin="round" opacity="0.85">
<g transform="translate(180 180) rotate(0)">
      <path d="M-110 30 Q-50 -20 0 0 Q 30 50 80 90"/>
      <ellipse cx="-80" cy="20" rx="26" ry="10.4" transform="rotate(-30 -80 20)" fill="currentColor" opacity="0.32"/>
      <ellipse cx="60" cy="70" rx="26" ry="10.4" transform="rotate(40 60 70)" fill="currentColor" opacity="0.32"/>
      <ellipse cx="33.0" cy="0.0" rx="19.3" ry="9.9" transform="rotate(0.0 33.0 0.0)" fill="currentColor" opacity="0.35"/>
      <ellipse cx="16.5" cy="28.6" rx="19.3" ry="9.9" transform="rotate(60.0 16.5 28.6)" fill="currentColor" opacity="0.35"/>
      <ellipse cx="-16.5" cy="28.6" rx="19.3" ry="9.9" transform="rotate(120.0 -16.5 28.6)" fill="currentColor" opacity="0.35"/>
      <ellipse cx="-33.0" cy="0.0" rx="19.3" ry="9.9" transform="rotate(180.0 -33.0 0.0)" fill="currentColor" opacity="0.35"/>
      <ellipse cx="-16.5" cy="-28.6" rx="19.3" ry="9.9" transform="rotate(240.0 -16.5 -28.6)" fill="currentColor" opacity="0.35"/>
      <ellipse cx="16.5" cy="-28.6" rx="19.3" ry="9.9" transform="rotate(300.0 16.5 -28.6)" fill="currentColor" opacity="0.35"/>
      <circle cx="0" cy="0" r="17.6" fill="currentColor" opacity="0.7"/>
    </g>
    <g transform="translate(720 180) rotate(90)">
      <path d="M-110 30 Q-50 -20 0 0 Q 30 50 80 90"/>
      <ellipse cx="-80" cy="20" rx="26" ry="10.4" transform="rotate(-30 -80 20)" fill="currentColor" opacity="0.32"/>
      <ellipse cx="60" cy="70" rx="26" ry="10.4" transform="rotate(40 60 70)" fill="currentColor" opacity="0.32"/>
      <ellipse cx="33.0" cy="0.0" rx="19.3" ry="9.9" transform="rotate(0.0 33.0 0.0)" fill="currentColor" opacity="0.35"/>
      <ellipse cx="16.5" cy="28.6" rx="19.3" ry="9.9" transform="rotate(60.0 16.5 28.6)" fill="currentColor" opacity="0.35"/>
      <ellipse cx="-16.5" cy="28.6" rx="19.3" ry="9.9" transform="rotate(120.0 -16.5 28.6)" fill="currentColor" opacity="0.35"/>
      <ellipse cx="-33.0" cy="0.0" rx="19.3" ry="9.9" transform="rotate(180.0 -33.0 0.0)" fill="currentColor" opacity="0.35"/>
      <ellipse cx="-16.5" cy="-28.6" rx="19.3" ry="9.9" transform="rotate(240.0 -16.5 -28.6)" fill="currentColor" opacity="0.35"/>
      <ellipse cx="16.5" cy="-28.6" rx="19.3" ry="9.9" transform="rotate(300.0 16.5 -28.6)" fill="currentColor" opacity="0.35"/>
      <circle cx="0" cy="0" r="17.6" fill="currentColor" opacity="0.7"/>
    </g>
    <g transform="translate(720 720) rotate(180)">
      <path d="M-110 30 Q-50 -20 0 0 Q 30 50 80 90"/>
      <ellipse cx="-80" cy="20" rx="26" ry="10.4" transform="rotate(-30 -80 20)" fill="currentColor" opacity="0.32"/>
      <ellipse cx="60" cy="70" rx="26" ry="10.4" transform="rotate(40 60 70)" fill="currentColor" opacity="0.32"/>
      <ellipse cx="33.0" cy="0.0" rx="19.3" ry="9.9" transform="rotate(0.0 33.0 0.0)" fill="currentColor" opacity="0.35"/>
      <ellipse cx="16.5" cy="28.6" rx="19.3" ry="9.9" transform="rotate(60.0 16.5 28.6)" fill="currentColor" opacity="0.35"/>
      <ellipse cx="-16.5" cy="28.6" rx="19.3" ry="9.9" transform="rotate(120.0 -16.5 28.6)" fill="currentColor" opacity="0.35"/>
      <ellipse cx="-33.0" cy="0.0" rx="19.3" ry="9.9" transform="rotate(180.0 -33.0 0.0)" fill="currentColor" opacity="0.35"/>
      <ellipse cx="-16.5" cy="-28.6" rx="19.3" ry="9.9" transform="rotate(240.0 -16.5 -28.6)" fill="currentColor" opacity="0.35"/>
      <ellipse cx="16.5" cy="-28.6" rx="19.3" ry="9.9" transform="rotate(300.0 16.5 -28.6)" fill="currentColor" opacity="0.35"/>
      <circle cx="0" cy="0" r="17.6" fill="currentColor" opacity="0.7"/>
    </g>
    <g transform="translate(180 720) rotate(270)">
      <path d="M-110 30 Q-50 -20 0 0 Q 30 50 80 90"/>
      <ellipse cx="-80" cy="20" rx="26" ry="10.4" transform="rotate(-30 -80 20)" fill="currentColor" opacity="0.32"/>
      <ellipse cx="60" cy="70" rx="26" ry="10.4" transform="rotate(40 60 70)" fill="currentColor" opacity="0.32"/>
      <ellipse cx="33.0" cy="0.0" rx="19.3" ry="9.9" transform="rotate(0.0 33.0 0.0)" fill="currentColor" opacity="0.35"/>
      <ellipse cx="16.5" cy="28.6" rx="19.3" ry="9.9" transform="rotate(60.0 16.5 28.6)" fill="currentColor" opacity="0.35"/>
      <ellipse cx="-16.5" cy="28.6" rx="19.3" ry="9.9" transform="rotate(120.0 -16.5 28.6)" fill="currentColor" opacity="0.35"/>
      <ellipse cx="-33.0" cy="0.0" rx="19.3" ry="9.9" transform="rotate(180.0 -33.0 0.0)" fill="currentColor" opacity="0.35"/>
      <ellipse cx="-16.5" cy="-28.6" rx="19.3" ry="9.9" transform="rotate(240.0 -16.5 -28.6)" fill="currentColor" opacity="0.35"/>
      <ellipse cx="16.5" cy="-28.6" rx="19.3" ry="9.9" transform="rotate(300.0 16.5 -28.6)" fill="currentColor" opacity="0.35"/>
      <circle cx="0" cy="0" r="17.6" fill="currentColor" opacity="0.7"/>
    </g>
  </g>
</svg>
