<?xml version="1.0" encoding="UTF-8"?>
<svg xmlns="http://www.w3.org/2000/svg" width="900" height="900" viewBox="0 0 900 900" fill="none" role="img" aria-label="kids-party-5">
  <g stroke="currentColor" stroke-width="0" stroke-linecap="round" stroke-linejoin="round" opacity="0.9">
<rect x="100" y="100" width="12" height="6" fill="currentColor" opacity="0.3" transform="rotate(0 106 103)"/>
    <circle cx="127" cy="147" r="9" fill="currentColor" opacity="0.5"/>
    <polygon points="154.0,182.0 156.8,190.1 165.4,190.3 158.6,195.5 161.1,203.7 154.0,198.8 146.9,203.7 149.4,195.5 142.6,190.3 151.2,190.1" fill="currentColor" opacity="0.5"/>
    <rect x="181" y="241" width="30" height="15" fill="currentColor" opacity="0.3" transform="rotate(9 196 248.5)"/>
    <circle cx="208" cy="288" r="6" fill="currentColor" opacity="0.5"/>
    <polygon points="235.0,326.0 237.1,332.1 243.6,332.2 238.4,336.1 240.3,342.3 235.0,338.6 229.7,342.3 231.6,336.1 226.4,332.2 232.9,332.1" fill="currentColor" opacity="0.5"/>
    <rect x="262" y="382" width="24" height="12" fill="currentColor" opacity="0.3" transform="rotate(18 274 388)"/>
    <circle cx="289" cy="429" r="15" fill="currentColor" opacity="0.5"/>
    <polygon points="316.0,470.0 317.4,474.1 321.7,474.1 318.3,476.7 319.5,480.9 316.0,478.4 312.5,480.9 313.7,476.7 310.3,474.1 314.6,474.1" fill="currentColor" opacity="0.5"/>
    <rect x="343" y="523" width="18" height="9" fill="currentColor" opacity="0.3" transform="rotate(27 352 527.5)"/>
    <circle cx="370" cy="570" r="12" fill="currentColor" opacity="0.5"/>
    <polygon points="397.0,602.0 400.5,612.1 411.3,612.4 402.7,618.9 405.8,629.1 397.0,623.0 388.2,629.1 391.3,618.9 382.7,612.4 393.5,612.1" fill="currentColor" opacity="0.5"/>
    <rect x="424" y="664" width="12" height="6" fill="currentColor" opacity="0.3" transform="rotate(36 430 667)"/>
    <circle cx="451" cy="711" r="9" fill="currentColor" opacity="0.5"/>
    <polygon points="478.0,746.0 480.8,754.1 489.4,754.3 482.6,759.5 485.1,767.7 478.0,762.8 470.9,767.7 473.4,759.5 466.6,754.3 475.2,754.1" fill="currentColor" opacity="0.5"/>
    <rect x="505" y="105" width="30" height="15" fill="currentColor" opacity="0.3" transform="rotate(45 520 112.5)"/>
    <circle cx="532" cy="152" r="6" fill="currentColor" opacity="0.5"/>
    <polygon points="559.0,190.0 561.1,196.1 567.6,196.2 562.4,200.1 564.3,206.3 559.0,202.6 553.7,206.3 555.6,200.1 550.4,196.2 556.9,196.1" fill="currentColor" opacity="0.5"/>
    <rect x="586" y="246" width="24" height="12" fill="currentColor" opacity="0.3" transform="rotate(54 598 252)"/>
    <circle cx="613" cy="293" r="15" fill="currentColor" opacity="0.5"/>
    <polygon points="640.0,334.0 641.4,338.1 645.7,338.1 642.3,340.7 643.5,344.9 640.0,342.4 636.5,344.9 637.7,340.7 634.3,338.1 638.6,338.1" fill="currentColor" opacity="0.5"/>
    <rect x="667" y="387" width="18" height="9" fill="currentColor" opacity="0.3" transform="rotate(63 676 391.5)"/>
    <circle cx="694" cy="434" r="12" fill="currentColor" opacity="0.5"/>
    <polygon points="721.0,466.0 724.5,476.1 735.3,476.4 726.7,482.9 729.8,493.1 721.0,487.0 712.2,493.1 715.3,482.9 706.7,476.4 717.5,476.1" fill="currentColor" opacity="0.5"/>
    <rect x="748" y="528" width="12" height="6" fill="currentColor" opacity="0.3" transform="rotate(72 754 531)"/>
    <circle cx="775" cy="575" r="9" fill="currentColor" opacity="0.5"/>
    <polygon points="102.0,610.0 104.8,618.1 113.4,618.3 106.6,623.5 109.1,631.7 102.0,626.8 94.9,631.7 97.4,623.5 90.6,618.3 99.2,618.1" fill="currentColor" opacity="0.5"/>
    <rect x="129" y="669" width="30" height="15" fill="currentColor" opacity="0.3" transform="rotate(81 144 676.5)"/>
    <circle cx="156" cy="716" r="6" fill="currentColor" opacity="0.5"/>
    <polygon points="183.0,754.0 185.1,760.1 191.6,760.2 186.4,764.1 188.3,770.3 183.0,766.6 177.7,770.3 179.6,764.1 174.4,760.2 180.9,760.1" fill="currentColor" opacity="0.5"/>
  </g>
</svg>
