<?xml version="1.0" encoding="UTF-8"?>
<svg xmlns="http://www.w3.org/2000/svg" width="900" height="900" viewBox="0 0 900 900" fill="none" role="img" aria-label="botanical-frames-9">
  <g stroke="currentColor" stroke-width="6" stroke-linecap="round" stroke-linejoin="round" opacity="0.85">
<path d="M150 800 L150 300"/>
    <path d="M750 800 L750 300"/>
    <path d="M150 800 L750 800"/>
    <path d="M150 300 Q450 150 750 300" stroke-dasharray="8 12"/>
    <ellipse cx="220" cy="250" rx="24" ry="9.600000000000001" transform="rotate(-20 220 250)" fill="currentColor" opacity="0.32"/>
    <ellipse cx="680" cy="250" rx="24" ry="9.600000000000001" transform="rotate(20 680 250)" fill="currentColor" opacity="0.32"/>
    <ellipse cx="280" cy="380" rx="22" ry="8.8" transform="rotate(-45 280 380)" fill="currentColor" opacity="0.32"/>
    <ellipse cx="620" cy="380" rx="22" ry="8.8" transform="rotate(45 620 380)" fill="currentColor" opacity="0.32"/>
    <ellipse cx="200" cy="520" rx="20" ry="8" transform="rotate(-10 200 520)" fill="currentColor" opacity="0.32"/>
    <ellipse cx="700" cy="520" rx="20" ry="8" transform="rotate(10 700 520)" fill="currentColor" opacity="0.32"/>
  </g>
</svg>
