<?xml version="1.0" encoding="UTF-8"?>
<svg xmlns="http://www.w3.org/2000/svg" width="900" height="900" viewBox="0 0 900 900" fill="none" role="img" aria-label="botanical-frames-8">
  <g stroke="currentColor" stroke-width="5" stroke-linecap="round" stroke-linejoin="round" opacity="0.85">
<path d="M150 120 Q175 100 200 120"/>
    <path d="M200 120 Q225 100 250 120"/>
    <path d="M250 120 Q275 100 300 120"/>
    <path d="M300 120 Q325 100 350 120"/>
    <path d="M350 120 Q375 100 400 120"/>
    <path d="M400 120 Q425 100 450 120"/>
    <path d="M450 120 Q475 100 500 120"/>
    <path d="M500 120 Q525 100 550 120"/>
    <path d="M550 120 Q575 100 600 120"/>
    <path d="M600 120 Q625 100 650 120"/>
    <path d="M650 120 Q675 100 700 120"/>
    <path d="M700 120 Q725 100 750 120"/>
    <path d="M150 780 Q175 800 200 780"/>
    <path d="M200 780 Q225 800 250 780"/>
    <path d="M250 780 Q275 800 300 780"/>
    <path d="M300 780 Q325 800 350 780"/>
    <path d="M350 780 Q375 800 400 780"/>
    <path d="M400 780 Q425 800 450 780"/>
    <path d="M450 780 Q475 800 500 780"/>
    <path d="M500 780 Q525 800 550 780"/>
    <path d="M550 780 Q575 800 600 780"/>
    <path d="M600 780 Q625 800 650 780"/>
    <path d="M650 780 Q675 800 700 780"/>
    <path d="M700 780 Q725 800 750 780"/>
    <path d="M120 150 Q100 175 120 200"/>
    <path d="M120 200 Q100 225 120 250"/>
    <path d="M120 250 Q100 275 120 300"/>
    <path d="M120 300 Q100 325 120 350"/>
    <path d="M120 350 Q100 375 120 400"/>
    <path d="M120 400 Q100 425 120 450"/>
    <path d="M120 450 Q100 475 120 500"/>
    <path d="M120 500 Q100 525 120 550"/>
    <path d="M120 550 Q100 575 120 600"/>
    <path d="M120 600 Q100 625 120 650"/>
    <path d="M120 650 Q100 675 120 700"/>
    <path d="M120 700 Q100 725 120 750"/>
    <path d="M780 150 Q800 175 780 200"/>
    <path d="M780 200 Q800 225 780 250"/>
    <path d="M780 250 Q800 275 780 300"/>
    <path d="M780 300 Q800 325 780 350"/>
    <path d="M780 350 Q800 375 780 400"/>
    <path d="M780 400 Q800 425 780 450"/>
    <path d="M780 450 Q800 475 780 500"/>
    <path d="M780 500 Q800 525 780 550"/>
    <path d="M780 550 Q800 575 780 600"/>
    <path d="M780 600 Q800 625 780 650"/>
    <path d="M780 650 Q800 675 780 700"/>
    <path d="M780 700 Q800 725 780 750"/>
    <ellipse cx="191.0" cy="170.0" rx="12.3" ry="6.3" transform="rotate(0.0 191.0 170.0)" fill="currentColor" opacity="0.35"/>
      <ellipse cx="180.5" cy="188.2" rx="12.3" ry="6.3" transform="rotate(60.0 180.5 188.2)" fill="currentColor" opacity="0.35"/>
      <ellipse cx="159.5" cy="188.2" rx="12.3" ry="6.3" transform="rotate(120.0 159.5 188.2)" fill="currentColor" opacity="0.35"/>
      <ellipse cx="149.0" cy="170.0" rx="12.3" ry="6.3" transform="rotate(180.0 149.0 170.0)" fill="currentColor" opacity="0.35"/>
      <ellipse cx="159.5" cy="151.8" rx="12.3" ry="6.3" transform="rotate(240.0 159.5 151.8)" fill="currentColor" opacity="0.35"/>
      <ellipse cx="180.5" cy="151.8" rx="12.3" ry="6.3" transform="rotate(300.0 180.5 151.8)" fill="currentColor" opacity="0.35"/>
      <circle cx="170" cy="170" r="11.200000000000001" fill="currentColor" opacity="0.7"/>
    <ellipse cx="751.0" cy="170.0" rx="12.3" ry="6.3" transform="rotate(0.0 751.0 170.0)" fill="currentColor" opacity="0.35"/>
      <ellipse cx="740.5" cy="188.2" rx="12.3" ry="6.3" transform="rotate(60.0 740.5 188.2)" fill="currentColor" opacity="0.35"/>
      <ellipse cx="719.5" cy="188.2" rx="12.3" ry="6.3" transform="rotate(120.0 719.5 188.2)" fill="currentColor" opacity="0.35"/>
      <ellipse cx="709.0" cy="170.0" rx="12.3" ry="6.3" transform="rotate(180.0 709.0 170.0)" fill="currentColor" opacity="0.35"/>
      <ellipse cx="719.5" cy="151.8" rx="12.3" ry="6.3" transform="rotate(240.0 719.5 151.8)" fill="currentColor" opacity="0.35"/>
      <ellipse cx="740.5" cy="151.8" rx="12.3" ry="6.3" transform="rotate(300.0 740.5 151.8)" fill="currentColor" opacity="0.35"/>
      <circle cx="730" cy="170" r="11.200000000000001" fill="currentColor" opacity="0.7"/>
    <ellipse cx="191.0" cy="730.0" rx="12.3" ry="6.3" transform="rotate(0.0 191.0 730.0)" fill="currentColor" opacity="0.35"/>
      <ellipse cx="180.5" cy="748.2" rx="12.3" ry="6.3" transform="rotate(60.0 180.5 748.2)" fill="currentColor" opacity="0.35"/>
      <ellipse cx="159.5" cy="748.2" rx="12.3" ry="6.3" transform="rotate(120.0 159.5 748.2)" fill="currentColor" opacity="0.35"/>
      <ellipse cx="149.0" cy="730.0" rx="12.3" ry="6.3" transform="rotate(180.0 149.0 730.0)" fill="currentColor" opacity="0.35"/>
      <ellipse cx="159.5" cy="711.8" rx="12.3" ry="6.3" transform="rotate(240.0 159.5 711.8)" fill="currentColor" opacity="0.35"/>
      <ellipse cx="180.5" cy="711.8" rx="12.3" ry="6.3" transform="rotate(300.0 180.5 711.8)" fill="currentColor" opacity="0.35"/>
      <circle cx="170" cy="730" r="11.200000000000001" fill="currentColor" opacity="0.7"/>
    <ellipse cx="751.0" cy="730.0" rx="12.3" ry="6.3" transform="rotate(0.0 751.0 730.0)" fill="currentColor" opacity="0.35"/>
      <ellipse cx="740.5" cy="748.2" rx="12.3" ry="6.3" transform="rotate(60.0 740.5 748.2)" fill="currentColor" opacity="0.35"/>
      <ellipse cx="719.5" cy="748.2" rx="12.3" ry="6.3" transform="rotate(120.0 719.5 748.2)" fill="currentColor" opacity="0.35"/>
      <ellipse cx="709.0" cy="730.0" rx="12.3" ry="6.3" transform="rotate(180.0 709.0 730.0)" fill="currentColor" opacity="0.35"/>
      <ellipse cx="719.5" cy="711.8" rx="12.3" ry="6.3" transform="rotate(240.0 719.5 711.8)" fill="currentColor" opacity="0.35"/>
      <ellipse cx="740.5" cy="711.8" rx="12.3" ry="6.3" transform="rotate(300.0 740.5 711.8)" fill="currentColor" opacity="0.35"/>
      <circle cx="730" cy="730" r="11.200000000000001" fill="currentColor" opacity="0.7"/>
  </g>
</svg>
