<?xml version="1.0" encoding="UTF-8"?>
<svg xmlns="http://www.w3.org/2000/svg" width="900" height="900" viewBox="0 0 900 900" fill="none" role="img" aria-label="botanical-frames-5">
  <g stroke="currentColor" stroke-width="4" stroke-linecap="round" stroke-linejoin="round" opacity="0.9">
<rect x="120" y="120" width="660" height="660"/>
    <rect x="140" y="140" width="620" height="620" opacity="0.5"/>
    <line x1="450" y1="120" x2="450" y2="80"/>
    <line x1="450" y1="780" x2="450" y2="820"/>
    <line x1="120" y1="450" x2="80" y2="450"/>
    <line x1="780" y1="450" x2="820" y2="450"/>
    <circle cx="450" cy="80" r="6" fill="currentColor" opacity="0.6"/>
    <circle cx="450" cy="820" r="6" fill="currentColor" opacity="0.6"/>
    <circle cx="80" cy="450" r="6" fill="currentColor" opacity="0.6"/>
    <circle cx="820" cy="450" r="6" fill="currentColor" opacity="0.6"/>
    <path d="M140 250 Q225 195 250 140"/>
      <ellipse cx="181.2" cy="228.0" rx="18" ry="8.1" transform="rotate(-135.0 181.2 228.0)" fill="currentColor" opacity="0.28"/>
      <ellipse cx="212.8" cy="206.0" rx="18" ry="8.1" transform="rotate(45.0 212.8 206.0)" fill="currentColor" opacity="0.28"/>
      <ellipse cx="234.8" cy="184.0" rx="18" ry="8.1" transform="rotate(-135.0 234.8 184.0)" fill="currentColor" opacity="0.28"/>
      <ellipse cx="247.2" cy="162.0" rx="18" ry="8.1" transform="rotate(45.0 247.2 162.0)" fill="currentColor" opacity="0.28"/>
    <path d="M760 140 Q735 195 650 250"/>
      <ellipse cx="757.2" cy="162.0" rx="18" ry="8.1" transform="rotate(45.0 757.2 162.0)" fill="currentColor" opacity="0.28"/>
      <ellipse cx="744.8" cy="184.0" rx="18" ry="8.1" transform="rotate(-135.0 744.8 184.0)" fill="currentColor" opacity="0.28"/>
      <ellipse cx="722.8" cy="206.0" rx="18" ry="8.1" transform="rotate(45.0 722.8 206.0)" fill="currentColor" opacity="0.28"/>
      <ellipse cx="691.2" cy="228.0" rx="18" ry="8.1" transform="rotate(-135.0 691.2 228.0)" fill="currentColor" opacity="0.28"/>
    <path d="M140 650 Q225 705 250 760"/>
      <ellipse cx="181.2" cy="672.0" rx="18" ry="8.1" transform="rotate(-45.0 181.2 672.0)" fill="currentColor" opacity="0.28"/>
      <ellipse cx="212.8" cy="694.0" rx="18" ry="8.1" transform="rotate(135.0 212.8 694.0)" fill="currentColor" opacity="0.28"/>
      <ellipse cx="234.8" cy="716.0" rx="18" ry="8.1" transform="rotate(-45.0 234.8 716.0)" fill="currentColor" opacity="0.28"/>
      <ellipse cx="247.2" cy="738.0" rx="18" ry="8.1" transform="rotate(135.0 247.2 738.0)" fill="currentColor" opacity="0.28"/>
    <path d="M760 760 Q735 705 650 650"/>
      <ellipse cx="757.2" cy="738.0" rx="18" ry="8.1" transform="rotate(135.0 757.2 738.0)" fill="currentColor" opacity="0.28"/>
      <ellipse cx="744.8" cy="716.0" rx="18" ry="8.1" transform="rotate(-45.0 744.8 716.0)" fill="currentColor" opacity="0.28"/>
      <ellipse cx="722.8" cy="694.0" rx="18" ry="8.1" transform="rotate(135.0 722.8 694.0)" fill="currentColor" opacity="0.28"/>
      <ellipse cx="691.2" cy="672.0" rx="18" ry="8.1" transform="rotate(-45.0 691.2 672.0)" fill="currentColor" opacity="0.28"/>
  </g>
</svg>
