<?xml version="1.0" encoding="UTF-8"?>
<svg xmlns="http://www.w3.org/2000/svg" width="900" height="900" viewBox="0 0 900 900" fill="none" role="img" aria-label="botanical-frames-10">
  <g stroke="currentColor" stroke-width="5" stroke-linecap="round" stroke-linejoin="round" opacity="0.9">
<rect x="150" y="150" width="600" height="600"/>
    <line x1="150" y1="200" x2="750" y2="200"/>
    <line x1="150" y1="700" x2="750" y2="700"/>
    <line x1="200" y1="150" x2="200" y2="750"/>
    <line x1="700" y1="150" x2="700" y2="750"/>
    <circle cx="200" cy="200" r="12" fill="currentColor" opacity="0.7"/>
      <circle cx="200" cy="200" r="22" opacity="0.5"/>
    <circle cx="700" cy="200" r="12" fill="currentColor" opacity="0.7"/>
      <circle cx="700" cy="200" r="22" opacity="0.5"/>
    <circle cx="200" cy="700" r="12" fill="currentColor" opacity="0.7"/>
      <circle cx="200" cy="700" r="22" opacity="0.5"/>
    <circle cx="700" cy="700" r="12" fill="currentColor" opacity="0.7"/>
      <circle cx="700" cy="700" r="22" opacity="0.5"/>
    <ellipse cx="450" cy="175" rx="30" ry="12" transform="rotate(0 450 175)" fill="currentColor" opacity="0.32"/>
    <ellipse cx="450" cy="725" rx="30" ry="12" transform="rotate(0 450 725)" fill="currentColor" opacity="0.32"/>
    <ellipse cx="175" cy="450" rx="30" ry="12" transform="rotate(90 175 450)" fill="currentColor" opacity="0.32"/>
    <ellipse cx="725" cy="450" rx="30" ry="12" transform="rotate(90 725 450)" fill="currentColor" opacity="0.32"/>
  </g>
</svg>
