<?xml version="1.0" encoding="UTF-8"?>
<svg xmlns="http://www.w3.org/2000/svg" width="900" height="900" viewBox="0 0 900 900" fill="none" role="img" aria-label="dividers-3">
  <g stroke="currentColor" stroke-width="3" stroke-linecap="round" stroke-linejoin="round" opacity="0.9">
<line x1="100" y1="444" x2="400" y2="444"/>
    <line x1="100" y1="456" x2="400" y2="456"/>
    <line x1="500" y1="444" x2="800" y2="444"/>
    <line x1="500" y1="456" x2="800" y2="456"/>
    <ellipse cx="471.6" cy="450.0" rx="12.6" ry="6.5" transform="rotate(0.0 471.6 450.0)" fill="currentColor" opacity="0.35"/>
      <ellipse cx="460.8" cy="468.7" rx="12.6" ry="6.5" transform="rotate(60.0 460.8 468.7)" fill="currentColor" opacity="0.35"/>
      <ellipse cx="439.2" cy="468.7" rx="12.6" ry="6.5" transform="rotate(120.0 439.2 468.7)" fill="currentColor" opacity="0.35"/>
      <ellipse cx="428.4" cy="450.0" rx="12.6" ry="6.5" transform="rotate(180.0 428.4 450.0)" fill="currentColor" opacity="0.35"/>
      <ellipse cx="439.2" cy="431.3" rx="12.6" ry="6.5" transform="rotate(240.0 439.2 431.3)" fill="currentColor" opacity="0.35"/>
      <ellipse cx="460.8" cy="431.3" rx="12.6" ry="6.5" transform="rotate(300.0 460.8 431.3)" fill="currentColor" opacity="0.35"/>
      <circle cx="450" cy="450" r="11.52" fill="currentColor" opacity="0.7"/>
  </g>
</svg>
