<?xml version="1.0" encoding="UTF-8"?>
<svg xmlns="http://www.w3.org/2000/svg" width="900" height="900" viewBox="0 0 900 900" fill="none" role="img" aria-label="dividers-2">
  <g stroke="currentColor" stroke-width="4" stroke-linecap="round" stroke-linejoin="round" opacity="0.9">
<circle cx="100" cy="450" r="4" fill="currentColor" opacity="0.6"/>
    <circle cx="128" cy="450" r="4" fill="currentColor" opacity="0.6"/>
    <circle cx="156" cy="450" r="4" fill="currentColor" opacity="0.6"/>
    <circle cx="184" cy="450" r="4" fill="currentColor" opacity="0.6"/>
    <circle cx="212" cy="450" r="4" fill="currentColor" opacity="0.6"/>
    <circle cx="240" cy="450" r="4" fill="currentColor" opacity="0.6"/>
    <circle cx="268" cy="450" r="4" fill="currentColor" opacity="0.6"/>
    <circle cx="296" cy="450" r="4" fill="currentColor" opacity="0.6"/>
    <circle cx="324" cy="450" r="4" fill="currentColor" opacity="0.6"/>
    <circle cx="352" cy="450" r="4" fill="currentColor" opacity="0.6"/>
    <circle cx="380" cy="450" r="4" fill="currentColor" opacity="0.6"/>
    <circle cx="408" cy="450" r="4" fill="currentColor" opacity="0.6"/>
    <circle cx="436" cy="450" r="4" fill="currentColor" opacity="0.6"/>
    <circle cx="464" cy="450" r="4" fill="currentColor" opacity="0.6"/>
    <circle cx="492" cy="450" r="4" fill="currentColor" opacity="0.6"/>
    <circle cx="520" cy="450" r="4" fill="currentColor" opacity="0.6"/>
    <circle cx="548" cy="450" r="4" fill="currentColor" opacity="0.6"/>
    <circle cx="576" cy="450" r="4" fill="currentColor" opacity="0.6"/>
    <circle cx="604" cy="450" r="4" fill="currentColor" opacity="0.6"/>
    <circle cx="632" cy="450" r="4" fill="currentColor" opacity="0.6"/>
    <circle cx="660" cy="450" r="4" fill="currentColor" opacity="0.6"/>
    <circle cx="688" cy="450" r="4" fill="currentColor" opacity="0.6"/>
    <circle cx="716" cy="450" r="4" fill="currentColor" opacity="0.6"/>
    <circle cx="744" cy="450" r="4" fill="currentColor" opacity="0.6"/>
    <circle cx="772" cy="450" r="4" fill="currentColor" opacity="0.6"/>
  </g>
</svg>
