<?xml version="1.0" encoding="UTF-8"?>
<svg xmlns="http://www.w3.org/2000/svg" width="900" height="900" viewBox="0 0 900 900" fill="none" role="img" aria-label="henna-night-3">
  <g stroke="currentColor" stroke-width="3" stroke-linecap="round" stroke-linejoin="round" opacity="0.9">
<circle cx="450" cy="450" r="40" fill="currentColor" opacity="0.6"/>
    <line x1="450" y1="450" x2="730.0" y2="450.0" opacity="0.6"/>
      <circle cx="550.0" cy="450.0" r="14" fill="currentColor" opacity="0.5"/>
      <circle cx="630.0" cy="450.0" r="20" stroke="currentColor" stroke-width="2" fill="none" opacity="0.6"/>
      <path d="M690.0 450.0 L730.0 450.0" stroke-width="3"/>
    <line x1="450" y1="450" x2="648.0" y2="648.0" opacity="0.6"/>
      <circle cx="520.7" cy="520.7" r="14" fill="currentColor" opacity="0.5"/>
      <circle cx="577.3" cy="577.3" r="20" stroke="currentColor" stroke-width="2" fill="none" opacity="0.6"/>
      <path d="M619.7 619.7 L648.0 648.0" stroke-width="3"/>
    <line x1="450" y1="450" x2="450.0" y2="730.0" opacity="0.6"/>
      <circle cx="450.0" cy="550.0" r="14" fill="currentColor" opacity="0.5"/>
      <circle cx="450.0" cy="630.0" r="20" stroke="currentColor" stroke-width="2" fill="none" opacity="0.6"/>
      <path d="M450.0 690.0 L450.0 730.0" stroke-width="3"/>
    <line x1="450" y1="450" x2="252.0" y2="648.0" opacity="0.6"/>
      <circle cx="379.3" cy="520.7" r="14" fill="currentColor" opacity="0.5"/>
      <circle cx="322.7" cy="577.3" r="20" stroke="currentColor" stroke-width="2" fill="none" opacity="0.6"/>
      <path d="M280.3 619.7 L252.0 648.0" stroke-width="3"/>
    <line x1="450" y1="450" x2="170.0" y2="450.0" opacity="0.6"/>
      <circle cx="350.0" cy="450.0" r="14" fill="currentColor" opacity="0.5"/>
      <circle cx="270.0" cy="450.0" r="20" stroke="currentColor" stroke-width="2" fill="none" opacity="0.6"/>
      <path d="M210.0 450.0 L170.0 450.0" stroke-width="3"/>
    <line x1="450" y1="450" x2="252.0" y2="252.0" opacity="0.6"/>
      <circle cx="379.3" cy="379.3" r="14" fill="currentColor" opacity="0.5"/>
      <circle cx="322.7" cy="322.7" r="20" stroke="currentColor" stroke-width="2" fill="none" opacity="0.6"/>
      <path d="M280.3 280.3 L252.0 252.0" stroke-width="3"/>
    <line x1="450" y1="450" x2="450.0" y2="170.0" opacity="0.6"/>
      <circle cx="450.0" cy="350.0" r="14" fill="currentColor" opacity="0.5"/>
      <circle cx="450.0" cy="270.0" r="20" stroke="currentColor" stroke-width="2" fill="none" opacity="0.6"/>
      <path d="M450.0 210.0 L450.0 170.0" stroke-width="3"/>
    <line x1="450" y1="450" x2="648.0" y2="252.0" opacity="0.6"/>
      <circle cx="520.7" cy="379.3" r="14" fill="currentColor" opacity="0.5"/>
      <circle cx="577.3" cy="322.7" r="20" stroke="currentColor" stroke-width="2" fill="none" opacity="0.6"/>
      <path d="M619.7 280.3 L648.0 252.0" stroke-width="3"/>
    <circle cx="450" cy="450" r="180" fill="none" stroke-dasharray="6 8" opacity="0.5"/>
  </g>
</svg>
