<?xml version="1.0" encoding="UTF-8"?>
<svg xmlns="http://www.w3.org/2000/svg" width="900" height="900" viewBox="0 0 900 900" fill="none" role="img" aria-label="henna-night-5">
  <g stroke="currentColor" stroke-width="5" stroke-linecap="round" stroke-linejoin="round" opacity="0.9">
<path d="M450 220 A220 220 0 1 0 600 660 A180 180 0 0 1 450 220 Z" fill="currentColor" opacity="0.5"/>
    <polygon points="610.0,266.0 613.3,275.5 623.3,275.7 615.3,281.7 618.2,291.3 610.0,285.6 601.8,291.3 604.7,281.7 596.7,275.7 606.7,275.5" fill="currentColor" opacity="0.5"/>
    <polygon points="670.0,326.0 673.3,335.5 683.3,335.7 675.3,341.7 678.2,351.3 670.0,345.6 661.8,351.3 664.7,341.7 656.7,335.7 666.7,335.5" fill="currentColor" opacity="0.5"/>
    <polygon points="610.0,386.0 613.3,395.5 623.3,395.7 615.3,401.7 618.2,411.3 610.0,405.6 601.8,411.3 604.7,401.7 596.7,395.7 606.7,395.5" fill="currentColor" opacity="0.5"/>
    <polygon points="670.0,446.0 673.3,455.5 683.3,455.7 675.3,461.7 678.2,471.3 670.0,465.6 661.8,471.3 664.7,461.7 656.7,455.7 666.7,455.5" fill="currentColor" opacity="0.5"/>
    <polygon points="610.0,506.0 613.3,515.5 623.3,515.7 615.3,521.7 618.2,531.3 610.0,525.6 601.8,531.3 604.7,521.7 596.7,515.7 606.7,515.5" fill="currentColor" opacity="0.5"/>
    <polygon points="670.0,566.0 673.3,575.5 683.3,575.7 675.3,581.7 678.2,591.3 670.0,585.6 661.8,591.3 664.7,581.7 656.7,575.7 666.7,575.5" fill="currentColor" opacity="0.5"/>
    <polygon points="610.0,626.0 613.3,635.5 623.3,635.7 615.3,641.7 618.2,651.3 610.0,645.6 601.8,651.3 604.7,641.7 596.7,635.7 606.7,635.5" fill="currentColor" opacity="0.5"/>
  </g>
</svg>
