<?xml version="1.0" encoding="UTF-8"?>
<svg xmlns="http://www.w3.org/2000/svg" width="900" height="900" viewBox="0 0 900 900" fill="none" role="img" aria-label="monograms-8">
  <g stroke="currentColor" stroke-width="5" stroke-linecap="round" stroke-linejoin="round" opacity="0.9">
<ellipse cx="220" cy="300" rx="28" ry="11.200000000000001" transform="rotate(-65 220 300)" fill="currentColor" opacity="0.32"/>
      <ellipse cx="680" cy="300" rx="28" ry="11.200000000000001" transform="rotate(65 680 300)" fill="currentColor" opacity="0.32"/>
    <ellipse cx="220" cy="350" rx="28" ry="11.200000000000001" transform="rotate(-65 220 350)" fill="currentColor" opacity="0.32"/>
      <ellipse cx="680" cy="350" rx="28" ry="11.200000000000001" transform="rotate(65 680 350)" fill="currentColor" opacity="0.32"/>
    <ellipse cx="220" cy="400" rx="28" ry="11.200000000000001" transform="rotate(-65 220 400)" fill="currentColor" opacity="0.32"/>
      <ellipse cx="680" cy="400" rx="28" ry="11.200000000000001" transform="rotate(65 680 400)" fill="currentColor" opacity="0.32"/>
    <ellipse cx="220" cy="450" rx="28" ry="11.200000000000001" transform="rotate(-65 220 450)" fill="currentColor" opacity="0.32"/>
      <ellipse cx="680" cy="450" rx="28" ry="11.200000000000001" transform="rotate(65 680 450)" fill="currentColor" opacity="0.32"/>
    <ellipse cx="220" cy="500" rx="28" ry="11.200000000000001" transform="rotate(-65 220 500)" fill="currentColor" opacity="0.32"/>
      <ellipse cx="680" cy="500" rx="28" ry="11.200000000000001" transform="rotate(65 680 500)" fill="currentColor" opacity="0.32"/>
    <ellipse cx="220" cy="550" rx="28" ry="11.200000000000001" transform="rotate(-65 220 550)" fill="currentColor" opacity="0.32"/>
      <ellipse cx="680" cy="550" rx="28" ry="11.200000000000001" transform="rotate(65 680 550)" fill="currentColor" opacity="0.32"/>
    <ellipse cx="220" cy="600" rx="28" ry="11.200000000000001" transform="rotate(-65 220 600)" fill="currentColor" opacity="0.32"/>
      <ellipse cx="680" cy="600" rx="28" ry="11.200000000000001" transform="rotate(65 680 600)" fill="currentColor" opacity="0.32"/>
    <g stroke="none" opacity="1">
       <text x="450" y="510" text-anchor="middle" font-family="Georgia, serif" font-style="italic" font-size="200" fill="currentColor">M&amp;K</text>
     </g>
  </g>
</svg>
