<?xml version="1.0" encoding="UTF-8"?>
<svg xmlns="http://www.w3.org/2000/svg" width="900" height="900" viewBox="0 0 900 900" fill="none" role="img" aria-label="save-the-date-9">
  <g stroke="currentColor" stroke-width="4" stroke-linecap="round" stroke-linejoin="round" opacity="0.9">
<path d="M150 350 L170 340 L190 360 L210 345 L230 360 L250 340 L270 360 L290 350 L310 360 L330 345 L350 360 L370 340 L390 360 L410 350 L430 360 L450 340 L470 360 L490 345 L510 360 L530 340 L550 360 L570 350 L590 360 L610 345 L630 360 L650 340 L670 360 L690 350 L710 360 L730 345 L750 360 L750 540 L730 555 L710 540 L690 555 L670 540 L650 555 L630 540 L610 555 L590 540 L570 555 L550 540 L530 555 L510 540 L490 555 L470 540 L450 555 L430 540 L410 555 L390 540 L370 555 L350 540 L330 555 L310 540 L290 555 L270 540 L250 555 L230 540 L210 555 L190 540 L170 555 L150 540 Z" fill="currentColor" opacity="0.18"/>
    <text x="450" y="470" text-anchor="middle" font-family="Georgia, serif" font-size="56" letter-spacing="6" fill="currentColor">SAVE THE DATE</text>
  </g>
</svg>
