<?xml version="1.0" encoding="UTF-8"?>
<svg xmlns="http://www.w3.org/2000/svg" width="900" height="900" viewBox="0 0 900 900" fill="none" role="img" aria-label="save-the-date-7">
  <g stroke="currentColor" stroke-width="0" stroke-linecap="round" stroke-linejoin="round" opacity="1">
<circle cx="150" cy="170" r="8" fill="white" stroke="currentColor" stroke-width="2"/>
    <circle cx="195" cy="170" r="8" fill="white" stroke="currentColor" stroke-width="2"/>
    <circle cx="240" cy="170" r="8" fill="white" stroke="currentColor" stroke-width="2"/>
    <circle cx="285" cy="170" r="8" fill="white" stroke="currentColor" stroke-width="2"/>
    <circle cx="330" cy="170" r="8" fill="white" stroke="currentColor" stroke-width="2"/>
    <circle cx="375" cy="170" r="8" fill="white" stroke="currentColor" stroke-width="2"/>
    <circle cx="420" cy="170" r="8" fill="white" stroke="currentColor" stroke-width="2"/>
    <circle cx="465" cy="170" r="8" fill="white" stroke="currentColor" stroke-width="2"/>
    <circle cx="510" cy="170" r="8" fill="white" stroke="currentColor" stroke-width="2"/>
    <circle cx="555" cy="170" r="8" fill="white" stroke="currentColor" stroke-width="2"/>
    <circle cx="600" cy="170" r="8" fill="white" stroke="currentColor" stroke-width="2"/>
    <circle cx="645" cy="170" r="8" fill="white" stroke="currentColor" stroke-width="2"/>
    <circle cx="690" cy="170" r="8" fill="white" stroke="currentColor" stroke-width="2"/>
    <circle cx="735" cy="170" r="8" fill="white" stroke="currentColor" stroke-width="2"/>
    <circle cx="150" cy="730" r="8" fill="white" stroke="currentColor" stroke-width="2"/>
    <circle cx="195" cy="730" r="8" fill="white" stroke="currentColor" stroke-width="2"/>
    <circle cx="240" cy="730" r="8" fill="white" stroke="currentColor" stroke-width="2"/>
    <circle cx="285" cy="730" r="8" fill="white" stroke="currentColor" stroke-width="2"/>
    <circle cx="330" cy="730" r="8" fill="white" stroke="currentColor" stroke-width="2"/>
    <circle cx="375" cy="730" r="8" fill="white" stroke="currentColor" stroke-width="2"/>
    <circle cx="420" cy="730" r="8" fill="white" stroke="currentColor" stroke-width="2"/>
    <circle cx="465" cy="730" r="8" fill="white" stroke="currentColor" stroke-width="2"/>
    <circle cx="510" cy="730" r="8" fill="white" stroke="currentColor" stroke-width="2"/>
    <circle cx="555" cy="730" r="8" fill="white" stroke="currentColor" stroke-width="2"/>
    <circle cx="600" cy="730" r="8" fill="white" stroke="currentColor" stroke-width="2"/>
    <circle cx="645" cy="730" r="8" fill="white" stroke="currentColor" stroke-width="2"/>
    <circle cx="690" cy="730" r="8" fill="white" stroke="currentColor" stroke-width="2"/>
    <circle cx="735" cy="730" r="8" fill="white" stroke="currentColor" stroke-width="2"/>
    <circle cx="170" cy="170" r="8" fill="white" stroke="currentColor" stroke-width="2"/>
    <circle cx="170" cy="215" r="8" fill="white" stroke="currentColor" stroke-width="2"/>
    <circle cx="170" cy="260" r="8" fill="white" stroke="currentColor" stroke-width="2"/>
    <circle cx="170" cy="305" r="8" fill="white" stroke="currentColor" stroke-width="2"/>
    <circle cx="170" cy="350" r="8" fill="white" stroke="currentColor" stroke-width="2"/>
    <circle cx="170" cy="395" r="8" fill="white" stroke="currentColor" stroke-width="2"/>
    <circle cx="170" cy="440" r="8" fill="white" stroke="currentColor" stroke-width="2"/>
    <circle cx="170" cy="485" r="8" fill="white" stroke="currentColor" stroke-width="2"/>
    <circle cx="170" cy="530" r="8" fill="white" stroke="currentColor" stroke-width="2"/>
    <circle cx="170" cy="575" r="8" fill="white" stroke="currentColor" stroke-width="2"/>
    <circle cx="170" cy="620" r="8" fill="white" stroke="currentColor" stroke-width="2"/>
    <circle cx="170" cy="665" r="8" fill="white" stroke="currentColor" stroke-width="2"/>
    <circle cx="170" cy="710" r="8" fill="white" stroke="currentColor" stroke-width="2"/>
    <circle cx="170" cy="755" r="8" fill="white" stroke="currentColor" stroke-width="2"/>
    <circle cx="730" cy="170" r="8" fill="white" stroke="currentColor" stroke-width="2"/>
    <circle cx="730" cy="215" r="8" fill="white" stroke="currentColor" stroke-width="2"/>
    <circle cx="730" cy="260" r="8" fill="white" stroke="currentColor" stroke-width="2"/>
    <circle cx="730" cy="305" r="8" fill="white" stroke="currentColor" stroke-width="2"/>
    <circle cx="730" cy="350" r="8" fill="white" stroke="currentColor" stroke-width="2"/>
    <circle cx="730" cy="395" r="8" fill="white" stroke="currentColor" stroke-width="2"/>
    <circle cx="730" cy="440" r="8" fill="white" stroke="currentColor" stroke-width="2"/>
    <circle cx="730" cy="485" r="8" fill="white" stroke="currentColor" stroke-width="2"/>
    <circle cx="730" cy="530" r="8" fill="white" stroke="currentColor" stroke-width="2"/>
    <circle cx="730" cy="575" r="8" fill="white" stroke="currentColor" stroke-width="2"/>
    <circle cx="730" cy="620" r="8" fill="white" stroke="currentColor" stroke-width="2"/>
    <circle cx="730" cy="665" r="8" fill="white" stroke="currentColor" stroke-width="2"/>
    <circle cx="730" cy="710" r="8" fill="white" stroke="currentColor" stroke-width="2"/>
    <circle cx="730" cy="755" r="8" fill="white" stroke="currentColor" stroke-width="2"/>
    <rect x="200" y="200" width="500" height="500" stroke="currentColor" stroke-width="3" fill="currentColor" fill-opacity="0.18"/>
    <text x="450" y="380" text-anchor="middle" font-family="Georgia, serif" font-size="36" letter-spacing="10" fill="currentColor">SAVE THE DATE</text>
    <text x="450" y="500" text-anchor="middle" font-family="Georgia, serif" font-weight="bold" font-size="100" fill="currentColor">15</text>
    <text x="450" y="570" text-anchor="middle" font-family="Georgia, serif" font-size="36" letter-spacing="10" fill="currentColor" opacity="0.7">JUNE 2026</text>
  </g>
</svg>
